<?xml version="1.0" encoding="utf-8"?>
<!-- Generator: Adobe Illustrator 16.0.0, SVG Export Plug-In . SVG Version: 6.00 Build 0)  -->
<!DOCTYPE svg PUBLIC "-//W3C//DTD SVG 1.1//EN" "http://www.w3.org/Graphics/SVG/1.1/DTD/svg11.dtd">
<svg version="1.1" id="レイヤー_1" xmlns="http://www.w3.org/2000/svg" xmlns:xlink="http://www.w3.org/1999/xlink" x="0px"
	 y="0px" width="120px" height="23px" viewBox="0 0 120 23" enable-background="new 0 0 120 23" xml:space="preserve">
<g id="レイヤー_1_1_" display="none">
	<path display="inline" fill="#FF0000" d="M7.669,19.107L6.925,19.66c-0.528-1.104-1.417-2.832-2.304-4.369
		c-0.48,2.666-1.584,5.064-3.697,7.082l-0.648-0.625c2.952-2.783,3.816-6.359,3.816-10.44V0.627h0.864v10.681
		c0,0.959-0.049,1.895-0.145,2.786C5.869,15.797,7.021,17.885,7.669,19.107z M2.533,5.211c-0.217,2.304-0.648,4.896-1.368,6.336
		l-0.769-0.24c0.792-1.464,1.248-3.984,1.393-6.192L2.533,5.211z M8.196,4.515c-0.504,1.56-1.319,3.792-2.184,5.737l-0.6-0.288
		c0.863-1.968,1.632-4.225,2.04-5.737L8.196,4.515z M10.141,16.947c-0.432,1.992-1.368,4.152-2.592,5.377L6.78,21.893
		c1.272-1.201,2.185-3.264,2.568-5.16L10.141,16.947z M8.965,8.14c-0.168,0.312-0.384,0.6-0.576,0.864l-0.72-0.432
		c1.752-2.329,2.809-4.945,3.359-7.921l0.816,0.096c-0.144,0.792-0.336,1.536-0.552,2.28h2.855h0.145h0.12l0.575,0.096
		c-0.695,5.544-2.951,9.602-6.479,11.93l-0.624-0.625c1.656-1.031,3-2.447,4.056-4.201C11.148,9.532,10.166,8.835,8.965,8.14z
		 M12.276,9.604c0.36-0.672,0.672-1.392,0.912-2.16c-0.744-0.624-1.704-1.2-2.88-1.776c-0.288,0.648-0.624,1.296-0.983,1.92
		C10.501,8.26,11.484,8.932,12.276,9.604z M13.43,6.724c0.264-0.912,0.48-1.896,0.648-2.929h-3.024
		c-0.144,0.432-0.312,0.864-0.48,1.272C11.702,5.619,12.662,6.171,13.43,6.724z M12.781,17.02c0.528,1.752,0.816,3.313,0.889,4.656
		l-0.889,0.168c-0.023-1.344-0.264-2.904-0.768-4.584L12.781,17.02z M22.502,14.5l-0.648,0.721
		c-1.656-1.271-2.855-3.625-3.552-7.489c-0.576,3.24-1.752,5.665-4.321,7.344l-0.647-0.625c2.809-1.799,3.913-4.487,4.345-8.255
		h-2.641V5.38h2.735c0.12-1.44,0.192-3.024,0.216-4.752l0.841,0.024c-0.024,1.704-0.097,3.288-0.217,4.729h3.528v0.816h-3.265
		C19.454,10.612,20.702,13.252,22.502,14.5z M16.142,16.973c0.816,1.729,1.32,3.264,1.561,4.607l-0.816,0.24
		c-0.216-1.344-0.696-2.904-1.44-4.584L16.142,16.973z M19.478,16.42c1.368,2.016,2.328,3.936,2.904,5.592l-0.84,0.313
		c-0.528-1.681-1.464-3.576-2.784-5.568L19.478,16.42z M20.222,0.987c0.912,1.032,1.56,2.016,1.944,2.952l-0.672,0.288
		c-0.385-0.912-0.984-1.872-1.824-2.904L20.222,0.987z"/>
	<path display="inline" fill="#FF0000" d="M31.068,8.668c-0.72-2.16-1.464-4.152-2.231-5.809l0.96-0.408
		c0.768,1.728,1.512,3.744,2.208,5.88c2.399-0.792,4.775-1.536,6.576-1.896c-0.648-1.44-1.969-3.577-2.929-4.705l0.841-0.456
		c1.031,1.224,2.399,3.6,3.048,4.993c0.384-0.048,0.72-0.072,1.031-0.072c3.648,0,5.521,1.584,5.521,4.92
		c0,2.736-1.848,4.561-5.208,4.561c-0.96,0-2.184-0.145-3.384-0.504l0.071-0.938c1.2,0.385,2.353,0.529,3.265,0.529
		c2.784,0,4.296-1.439,4.296-3.675c0-2.712-1.488-3.96-4.656-3.96c-1.656,0-4.873,0.936-8.185,2.088
		c1.368,4.178,2.544,8.689,3.216,12.313L34.5,21.748c-0.624-3.576-1.8-8.088-3.12-12.217c-1.944,0.696-3.89,1.416-5.544,2.04
		l-0.336-0.96C27.156,10.036,29.125,9.34,31.068,8.668z"/>
	<path display="inline" fill="#FF0000" d="M51.301,6.339c0.792,0.024,1.632,0.048,2.568,0.048c2.52,0,5.424-0.096,8.207-0.312
		c-0.526-1.536-0.936-3.144-1.15-4.656l1.008-0.12c0.191,1.512,0.576,3.121,1.129,4.705c2.545-0.192,4.944-0.48,6.744-0.864
		l0.191,0.912c-1.801,0.36-4.129,0.624-6.625,0.84c1.08,2.88,2.615,5.543,4.345,7.202l-0.743,0.84
		c-2.904-1.176-5.688-1.824-8.542-1.824c-3.072,0-4.777,1.416-4.777,3.527c0,2.809,2.856,4.129,8.5,4.129
		c0.961,0,2.017-0.047,3.145-0.119l-0.021,0.938c-1.079,0.099-2.137,0.119-3.07,0.119c-6.36,0-9.528-1.752-9.528-5.138
		c0-2.614,2.279-4.319,5.617-4.319c2.761,0,5.397,0.553,7.872,1.438c-1.368-1.438-2.764-3.958-3.771-6.722
		c-2.927,0.216-6,0.312-8.709,0.312c-0.816,0-1.632,0-2.376-0.024V6.339H51.301z"/>
	<path display="inline" fill="#FF0000" d="M80.244,5.019c0.385-1.416,0.672-2.736,0.863-3.84l1.009,0.12
		c-0.191,1.08-0.479,2.353-0.863,3.72h4.704v0.912h-4.969c-1.151,3.913-2.93,8.377-4.873,11.184l-0.889-0.525
		c1.92-2.664,3.625-6.89,4.729-10.658h-4.199V5.02L80.244,5.019L80.244,5.019z M90.063,8.5c-0.021,0.504-0.021,1.368-0.021,2.328
		c0,1.584,0,3.576,0.021,5.064c1.655,0.672,3.289,1.653,4.584,2.688l-0.623,0.721c-1.15-0.984-2.545-1.85-3.961-2.473v0.936
		c0,2.496-1.318,3.865-4.176,3.865c-2.714,0-4.537-1.537-4.537-3.289c0-2.016,1.729-3.336,4.537-3.336
		c1.03,0,2.135,0.191,3.215,0.553c0-1.438,0-3.24,0-4.729c0-0.96,0-1.824,0-2.328H90.063L90.063,8.5z M85.887,15.844
		c-2.307,0-3.674,0.961-3.674,2.496c0,1.32,1.633,2.424,3.602,2.424c2.279,0,3.313-0.979,3.313-3c0-0.312,0-0.768,0-1.32
		C88.021,16.061,86.916,15.844,85.887,15.844z M94.621,8.14c-1.367-1.008-4.104-2.568-5.977-3.312l0.479-0.792
		c1.992,0.864,4.514,2.28,6,3.312L94.621,8.14z"/>
	<path display="inline" fill="#FF0000" d="M101.916,4.347c-0.145,1.848-0.217,3.696-0.217,5.208c0,5.953,2.328,9.914,4.177,9.914
		c1.226,0,2.209-1.992,2.931-4.752l0.862,0.359c-0.937,3.336-2.063,5.447-3.744,5.447c-2.399,0-5.208-4.344-5.208-10.92
		c0-1.56,0.049-3.432,0.168-5.328L101.916,4.347z M114.949,3.939c3.384,3.265,4.632,7.153,4.775,12.385l-1.059,0.098
		c-0.068-5.065-1.316-8.906-4.516-11.882L114.949,3.939z"/>
</g>
<g id="レイヤー_4">
	<path fill="#F4DF47" stroke="#040000" stroke-width="0.25" stroke-linecap="round" stroke-linejoin="round" d="M41.156,3.35
		c0,0-3.241,7.273-3.482,9.671l-0.524,0.896l0.772,1.018c0,0,0.361,0.229,0.451,0.287s0.805,0.467,0.805,0.467
		s5.536-0.848,10.163-4.575l-1.749-2.049L46.013,9.17l-0.956-2.492l-1.295-0.259l-0.506-0.896c0,0-0.744-0.502-1.092-0.713
		S41.156,3.35,41.156,3.35z"/>
	<path fill="#F4F0B6" stroke="#040000" stroke-width="0.25" d="M41.156,3.35c0,0,0.371,6.515,8.185,7.764c0,0,1.985-2.24-1.631-6.14
		C47.709,4.973,44.982,2.296,41.156,3.35z"/>
	<path fill="#4AAE58" stroke="#040000" stroke-width="0.25" stroke-linecap="round" stroke-linejoin="round" d="M41.733,5.065
		c0,0-1.493-0.823-2.061-0.025C39.672,5.041,39.907,6.277,41.733,5.065z"/>
	<path fill="#4AAE58" stroke="#040000" stroke-width="0.25" stroke-linecap="round" stroke-linejoin="round" d="M45.311,7.57
		c0,0-1.519-0.307-2.09,1.327C43.221,8.897,45.014,9.667,45.311,7.57z"/>
	<path fill="#4AAE58" stroke="#040000" stroke-width="0.25" stroke-linecap="round" stroke-linejoin="round" d="M48.315,10.373
		c0,0,1.796,0.142,1.662,1.811C49.977,12.184,48.297,12.098,48.315,10.373z"/>
	<path fill="#4AAE58" stroke="#040000" stroke-width="0.25" stroke-linecap="round" stroke-linejoin="round" d="M50.88,7.176
		c0,0-0.522,1.438-1.886,0.831C48.994,8.006,49.656,6.944,50.88,7.176z"/>
	<path fill="#4AAE58" stroke="#040000" stroke-width="0.25" stroke-linecap="round" stroke-linejoin="round" d="M47.378,3.75
		c0,0,1.198,0.749-0.493,2.256C46.885,6.006,45.744,4.933,47.378,3.75z"/>
	<path fill="#4AAE58" stroke="#040000" stroke-width="0.25" stroke-linecap="round" stroke-linejoin="round" d="M44.534,0.727
		c0,0,1.154,0.817,0.372,2.659C44.906,3.384,43.502,2.217,44.534,0.727z"/>
	<path fill="#81368E" stroke="#040000" stroke-width="0.25" stroke-linecap="round" stroke-linejoin="round" d="M46.415,2.675
		c0,0-0.499-0.224-0.707,0.337c-0.208,0.563,0.639,0.601,0.639,0.601s-0.43,0.33-0.122,0.637s0.558-0.167,0.558-0.167
		s0.145,0.542,0.541,0.42c0.398-0.122,0.177-0.616,0.177-0.616s0.546-0.169,0.471-0.647c-0.075-0.476-0.678-0.368-0.678-0.368
		s0.158-0.542-0.345-0.598C46.445,2.218,46.415,2.675,46.415,2.675z"/>
	<path fill="#54ABE0" stroke="#040000" stroke-width="0.25" stroke-linecap="round" stroke-linejoin="round" d="M49.234,4.995
		c0,0-0.463-0.393-0.708-0.069c-0.247,0.323,0.291,0.63,0.291,0.63s-0.352-0.031-0.356,0.399c-0.004,0.431,0.674,0.205,0.674,0.205
		s-0.26,0.51,0.322,0.558c0.583,0.051,0.378-0.381,0.378-0.381s0.51,0.261,0.709-0.245c0.2-0.504-0.498-0.61-0.498-0.61
		s0.473-0.711-0.133-0.976C49.309,4.24,49.234,4.995,49.234,4.995z"/>
	<path fill="#DFE346" stroke="#040000" stroke-width="0.25" stroke-linecap="round" stroke-linejoin="round" d="M47.362,6.213
		c0,0,0.332-0.897-0.357-0.759c-0.689,0.139-0.489,0.896-0.489,0.896s-0.412-0.463-0.757,0.15c-0.345,0.612,0.736,0.658,0.736,0.658
		s-0.751,0.666,0.004,0.884s0.623-0.34,0.623-0.34s0.306,0.705,0.858,0.125c0.553-0.579-0.181-0.706-0.181-0.706
		s0.899-0.295,0.483-0.873C47.865,5.672,47.362,6.213,47.362,6.213z"/>
	<path fill="#EC80A9" stroke="#040000" stroke-width="0.25" stroke-linecap="round" stroke-linejoin="round" d="M49.881,9.202
		c0,0-0.124-0.49-0.529-0.208c-0.406,0.284,0.129,0.569,0.129,0.569S49,9.735,49.236,10.096c0.235,0.36,0.651,0.008,0.651,0.008
		s0.179,0.457,0.532,0.227c0.353-0.231-0.049-0.555-0.049-0.555s0.708-0.161,0.32-0.619S49.881,9.202,49.881,9.202z"/>
	<path fill="#E9A81D" stroke="#040000" stroke-width="0.25" stroke-linecap="round" stroke-linejoin="round" d="M47.759,9.264
		c0,0,0.805-0.751-0.078-0.903c-0.885-0.153-0.575,0.822-0.575,0.822s-0.434-0.711-0.782-0.348c-0.347,0.363,0.296,0.69,0.296,0.69
		s-0.741-0.227-0.582,0.617c0.159,0.845,0.873-0.06,0.873-0.06s-0.294,0.875,0.489,0.806c0.783-0.07,0.206-0.708,0.206-0.708
		s0.676,0.223,0.838-0.363C48.605,9.229,47.759,9.264,47.759,9.264z"/>
	<path fill="#E43430" stroke="#040000" stroke-width="0.25" stroke-linecap="round" stroke-linejoin="round" d="M44.301,4.56
		c0,0,0.917-0.932-0.063-1.455c-0.979-0.524-0.886,1.175-0.886,1.175s-1.043-1.332-1.554-0.191
		c-0.511,1.141,1.163,1.146,1.163,1.146s-1.113,1.059-0.041,1.703c1.074,0.645,1.041-0.776,1.041-0.776s0.3,0.959,1.177,0.259
		c0.878-0.7-0.396-0.912-0.396-0.912s1.114,0.276,0.961-0.823C45.548,3.587,44.301,4.56,44.301,4.56z"/>
	
		<circle fill="#B6DFE6" stroke="#040000" stroke-width="0.25" stroke-linecap="round" stroke-linejoin="round" cx="42.596" cy="2.591" r="0.359"/>
	
		<circle fill="#B6DFE6" stroke="#040000" stroke-width="0.25" stroke-linecap="round" stroke-linejoin="round" cx="48.453" cy="4.155" r="0.323"/>
	
		<circle fill="#B6DFE6" stroke="#040000" stroke-width="0.25" stroke-linecap="round" stroke-linejoin="round" cx="50.845" cy="6.488" r="0.216"/>
	
		<circle fill="#B6DFE6" stroke="#040000" stroke-width="0.25" stroke-linecap="round" stroke-linejoin="round" cx="48.733" cy="8.935" r="0.233"/>
	
		<circle fill="#B6DFE6" stroke="#040000" stroke-width="0.25" stroke-linecap="round" stroke-linejoin="round" cx="45.663" cy="8.759" r="0.269"/>
	
		<circle fill="#B6DFE6" stroke="#040000" stroke-width="0.25" stroke-linecap="round" stroke-linejoin="round" cx="45.324" cy="3.595" r="0.251"/>
	
		<circle fill="#B6DFE6" stroke="#040000" stroke-width="0.25" stroke-linecap="round" stroke-linejoin="round" cx="43.945" cy="7.485" r="0.269"/>
	
		<circle fill="#EBEB79" stroke="#040000" stroke-width="0.25" stroke-linecap="round" stroke-linejoin="round" cx="49.377" cy="5.671" r="0.305"/>
	
		<circle fill="#EBEB79" stroke="#040000" stroke-width="0.25" stroke-linecap="round" stroke-linejoin="round" cx="49.94" cy="9.639" r="0.202"/>
	
		<circle fill="#EBEB79" stroke="#040000" stroke-width="0.25" stroke-linecap="round" stroke-linejoin="round" cx="46.841" cy="3.418" r="0.22"/>
	
		<circle fill="#EBEB79" stroke="#040000" stroke-width="0.25" stroke-linecap="round" stroke-linejoin="round" cx="47.06" cy="6.932" r="0.323"/>
	
		<circle fill="#EBEB79" stroke="#040000" stroke-width="0.25" stroke-linecap="round" stroke-linejoin="round" cx="47.315" cy="9.675" r="0.233"/>
	
		<circle fill="#EBEB79" stroke="#040000" stroke-width="0.25" stroke-linecap="round" stroke-linejoin="round" cx="43.86" cy="5.24" r="0.377"/>
	<path fill="#F4DF47" stroke="#040000" stroke-width="0.25" stroke-linecap="round" stroke-linejoin="round" d="M37.534,14.809
		c0,0-2.532,1.217-2.845,1.674c-0.311,0.457,1.804,2.435,2.33,2.058c0.526-0.375,1.467-3.356,1.467-3.356l-0.551-0.611
		L37.534,14.809z"/>
	<path fill="#E43445" stroke="#040000" stroke-width="0.25" stroke-linecap="round" stroke-linejoin="round" d="M32.158,18.93
		c0,0-0.492,0.959-1.796,0.59c0,0,0.258-0.405,0.625-0.563c0,0-0.466-0.223-0.513-0.443c0,0,1.398,0.523,1.741-0.477l0.184-0.107
		l0.181,0.162L32.158,18.93z"/>
	<path fill="#EB8A99" stroke="#040000" stroke-width="0.25" stroke-linecap="round" stroke-linejoin="round" d="M33.571,14.496
		c0,0-0.918,0.422-1.167,1.195c-0.248,0.772-0.25,1.61-0.177,2.508c0,0,0.049,0.43-0.068,0.729c0,0,1.166-0.568,0.823-2.16
		c0,0-0.026-1.801,1.824-2.545l0.105-0.211l0.153-0.342L33.571,14.496z"/>
	<path fill="#E43445" stroke="#040000" stroke-width="0.25" stroke-linecap="round" stroke-linejoin="round" d="M36.948,13.508
		c0,0-1.705-1.426-3.448,1.012c0,0,1.993-0.896,3.115,0.148L36.948,13.508z"/>
	<path fill="#E43445" stroke="#040000" stroke-width="0.25" stroke-linecap="round" stroke-linejoin="round" d="M39.047,21.381
		c0,0,1.264,1.146,3.669,0.133c0,0,1.306-0.82,2.018,0.76c0,0,0.21-0.625-0.381-1.129c0,0,0.975,0.131,1.203,0.369
		c0,0-0.984-1.791-3-0.969c0,0-2.139,1.42-3.323-0.359l-0.472,0.26l-0.082,0.425L39.047,21.381z"/>
	<path fill="#EB8A99" stroke="#040000" stroke-width="0.25" stroke-linecap="round" stroke-linejoin="round" d="M40.578,18.799
		c0,0-0.362,0.76-0.877,1.088c0,0-1.199,0.963-0.654,1.494c0,0-1.475-0.582,0.223-2.324c0,0,1.584-1.192,0.771-1.897
		c-0.817-0.703-0.073-0.438-0.073-0.438l0.505,0.324l0.265,0.449l0.06,0.588L40.578,18.799z"/>
	<path fill="#E43445" stroke="#040000" stroke-width="0.25" stroke-linecap="round" stroke-linejoin="round" d="M39.531,16.375
		c0,0,2.535,0.225,1.013,2.508c0,0,0.726-1.727-1.47-2.049L39.531,16.375z"/>
	<path fill="#E43445" stroke="#040000" stroke-width="0.25" stroke-linecap="round" stroke-linejoin="round" d="M38.266,14.354
		c0,0-0.569-2.777-1.677-1.367l-0.796,1.142c0,0-0.91,1.461,1.755,0.988l0.578,0.547c0,0,0.266,2.178,1.317,1.135l0.819-0.817
		c0,0,0.735-0.912-1.519-1.103L38.266,14.354z"/>
	<path fill="#B43244" stroke="#040000" stroke-width="0.25" stroke-linecap="round" stroke-linejoin="round" d="M37.76,14.334
		c0,0-0.306-0.375-0.588-0.098c-0.278,0.279,0.273,0.508,0.273,0.508L37.76,14.334z"/>
	<path fill="#B43244" stroke="#040000" stroke-width="0.25" stroke-linecap="round" stroke-linejoin="round" d="M38.371,14.859
		c0,0,0.873,0.428,0.49,0.824c-0.386,0.395-0.664-0.554-0.664-0.554L38.371,14.859z"/>
	<path fill="#E43445" stroke="#040000" stroke-width="0.25" stroke-linecap="round" stroke-linejoin="round" d="M38.746,14.164
		c0,0-0.537-0.57-1.067,0.078c-0.532,0.652-0.832,0.803-0.28,1.309c0.553,0.506,0.843,0.248,1.288-0.266
		C39.132,14.77,39.265,14.662,38.746,14.164z"/>
	<text transform="matrix(1 0 0 1 53.2881 16.376)" fill="#FFFFFF" font-family="'HGMaruGothicMPRO'" font-size="18">花屋</text>
</g>
</svg>
