<?xml version="1.0" encoding="utf-8"?>
<!-- Generator: Adobe Illustrator 16.0.0, SVG Export Plug-In . SVG Version: 6.00 Build 0)  -->
<!DOCTYPE svg PUBLIC "-//W3C//DTD SVG 1.1//EN" "http://www.w3.org/Graphics/SVG/1.1/DTD/svg11.dtd">
<svg version="1.1" id="レイヤー_2" xmlns="http://www.w3.org/2000/svg" xmlns:xlink="http://www.w3.org/1999/xlink" x="0px"
	 y="0px" width="120px" height="23px" viewBox="0 0 120 23" enable-background="new 0 0 120 23" xml:space="preserve">
<path fill="#DEDDE3" stroke="#040000" stroke-width="0.25" stroke-linecap="round" stroke-linejoin="round" d="M30.708,8.113
	c0,0-6.822,0.696-5.548,5.68c0.01,0.039,0.021,0.079,0.032,0.119c1.415,5.092,17.162,3.441,18.67,2.97
	c1.509-0.471,5.894-1.603,5.563-5.469c0,0-0.26-3.949-10.267-3.666C39.159,7.748,31.946,7.807,30.708,8.113z"/>
<path fill="none" stroke="#040000" stroke-width="0.25" stroke-linecap="round" stroke-linejoin="round" d="M47.634,12.922
	c0,0,1.131-0.659,0.707-2.215"/>
<path fill="none" stroke="#040000" stroke-width="0.25" stroke-linecap="round" stroke-linejoin="round" d="M43.155,15.091
	c0,0,1.415-0.235,2.075-0.66"/>
<path fill="none" stroke="#040000" stroke-width="0.25" stroke-linecap="round" stroke-linejoin="round" d="M35.8,15.704
	c0,0,3.725,0.282,5.752-0.142"/>
<path fill="#959595" d="M33.714,16.835c0.382-0.134,0.459-1.839,0.459-1.839s12.706,0.802,13.885-3.536l-4.903-0.424l-3.819,1.179
	c0,0-0.613-0.095-2.64-0.142s-3.395-0.047-4.055-0.047s-4.29-0.802-4.29-0.802l0.283,2.429l-1.132,0.4c0,0-1.32,0.86,1.367,1.614
	C30.754,16.197,32.818,17.148,33.714,16.835z"/>
<path fill="#E1E566" stroke="#040000" stroke-width="0.25" stroke-linecap="round" stroke-linejoin="round" d="M34.668,5.944
	c0,0-1.202-0.671-4.137,2.334c-2.935,3.005-2.829,2.051-3.324,2.404c-0.495,0.354-0.283,0.778,0.177,1.203
	c0.459,0.425,7.814,4.137,16.23,1.732c0,0,3.89-1.344,4.314-2.298s0.053-1.043-0.708-1.291s-3.094-3.041-5.286-2.9
	C39.743,7.27,34.668,5.944,34.668,5.944z"/>
<path fill="#E6211C" stroke="#040000" stroke-width="0.25" stroke-linecap="round" stroke-linejoin="round" d="M32.111,6.628
	c0,0,1.851-1.368,1.709,1.933c-0.142,3.301,3.701,4.196,5.54,1.391c1.839-2.805,1.226,0.047,1.273,0.306
	c0.047,0.26,0.613,0.825,1.226-1.131s1.344-1.839,1.674-1.745c0.33,0.095-2.216-2.098-5.658-1.98
	C34.433,5.52,33.219,5.284,32.111,6.628z"/>
<path fill="#FFFFFF" stroke="#040000" stroke-width="0.25" stroke-linecap="round" stroke-linejoin="round" d="M37.709,6.015
	l0.99-4.278c0,0,1.131-0.708,1.662,0.565c0.531,1.273,1.485,0.036,1.591-0.354c0.106-0.389-0.636,2.652-0.636,2.652
	s-1.096,0.565-1.556-0.46c-0.459-1.025-1.273-0.507-1.45-0.259"/>
<ellipse transform="matrix(0.9244 -0.3814 0.3814 0.9244 1.7993 15.5335)" fill="#CA2726" stroke="#040000" stroke-width="0.25" stroke-linecap="round" stroke-linejoin="round" cx="40.091" cy="3.227" rx="0.412" ry="0.537"/>
<path fill="#237B3A" stroke="#040000" stroke-width="0.25" stroke-linecap="round" stroke-linejoin="round" d="M31.627,12.45
	c0,0-0.283-0.872-0.943,0.048c0,0-1.179-0.449-0.542,0.824c0,0-0.754,0.143-0.684,0.448c0,0-0.542,0.4,0.071,0.754
	c0,0,0.141,1.438,0.73,1.014c0,0,0.448,0.543,0.849,0.283c0,0,0.354,0.565,1.014,0.33c0,0,0.778,0.59,1.061,0.188
	c0,0,1.343,0.424,1.037-0.613c0,0,0.896,0.52,0.801-0.471c0,0,0.542-0.071,0.071-0.707c0,0,0.472-0.495-0.33-0.637
	c0,0,0.259-0.73-0.472-0.448c0,0-0.377-0.849-0.872-0.354c0,0-0.142-0.684-0.708-0.283C32.712,12.827,32.24,12.215,31.627,12.45z"/>
<circle fill="#D31E19" stroke="#040000" stroke-width="0.25" cx="28.634" cy="13.653" r="1.485"/>
<path fill="#237B3A" stroke="#040000" stroke-width="0.25" stroke-linecap="round" stroke-linejoin="round" d="M27.802,12.796
	c0,0,0.341-0.564,0.649-0.382c0,0-0.055-0.428,0.136-0.838c0,0,0.07,0.557,0.216,0.751c0,0,0.563-0.279,0.527-0.39l-0.361,0.683
	c0,0,0.573,0.219,0.692,0.12c0,0-0.353,0.422-0.921,0.093c0,0-0.397,0.771-0.457,0.73s0.192-0.885,0.192-0.885
	S27.98,12.638,27.802,12.796z"/>
<polygon fill="#237B3A" stroke="#040000" stroke-width="0.25" stroke-linecap="round" stroke-linejoin="round" points="
	28.604,12.662 28.613,12.521 28.731,12.501 28.822,12.624 "/>
<path fill="#FCFDFD" stroke="#040000" stroke-width="0.25" stroke-linecap="round" stroke-linejoin="round" d="M26.606,11.319
	c0,0-0.354,1.203,0.389,1.768"/>
<path fill="#848788" stroke="#040000" stroke-width="0.25" stroke-linecap="round" stroke-linejoin="round" d="M33.961,19.947
	c0,0-2.593-2.122-4.809-0.283c0,0-1.332,0.967,0.211,2.299c0,0,2.429,1.649,4.526-0.885c0,0,7.285-0.595,8.858,0.307
	c0,0,0.513,0.354,0.76-0.177c0,0,0.548-0.548-0.088-0.866C42.784,20.023,38.028,19.334,33.961,19.947z"/>
<path fill="none" stroke="#D3E4EA" stroke-width="0.25" stroke-linecap="round" stroke-linejoin="round" d="M33.074,20.075
	c0,0-0.77-0.977-2.669-0.626"/>
<path fill="none" stroke="#D3E4EA" stroke-width="0.25" stroke-linecap="round" stroke-linejoin="round" d="M29.688,19.89
	c0,0-0.351,0.108-0.641,0.665"/>
<path fill="none" stroke="#040000" stroke-width="0.25" stroke-linecap="round" stroke-linejoin="round" d="M61.019,15.289"/>
<path fill="none" stroke="#231815" stroke-width="0.25" stroke-miterlimit="10" d="M50.151,4.923l0.769,10.763
	c0,0,2.632,0.931,4.736-0.01L56.592,4.95C56.592,4.95,52.829,5.729,50.151,4.923z"/>
<path opacity="0.55" fill="#B4DFEF" stroke="#040000" stroke-width="0.25" stroke-linecap="round" stroke-linejoin="round" d="
	M50.357,7.355c0,0,0.631-1.392,2.713-0.326c0,0,0.785,0.379,1.478-0.038c0,0,1.805-0.779,1.839,0l-0.73,8.682
	c0,0-2.03,0.961-4.736,0.011L50.357,7.355z"/>
<polyline opacity="0.8" fill="none" stroke="#040000" stroke-width="0.25" stroke-linecap="round" stroke-linejoin="round" points="
	52.223,15.687 55.952,1.93 59.746,2.936 "/>
<path opacity="0.85" fill="#80C4DE" stroke="#040000" stroke-width="0.25" stroke-linecap="round" stroke-linejoin="round" d="
	M50.333,7.567c0,0,0.566,1.342,1.502,0.498c0,0,0.896-0.798,1.664-0.001c0,0,0.802,1.138,1.725-0.203c0,0,0.717-0.952,1.139-0.447
	l-0.707,8.273c0,0-1.766,0.933-4.736,0.011L50.333,7.567z"/>
<path fill="none" stroke="#040000" stroke-width="0.25" stroke-linecap="round" stroke-linejoin="round" d="M50.151,4.774
	c0,0,1.186-0.205,2.72-0.259c1.161-0.042,2.521,0.003,3.721,0.286"/>
<path opacity="0.55" fill="none" stroke="#030000" stroke-width="0.25" stroke-linecap="round" stroke-linejoin="round" d="
	M50.92,15.657c0,0,2.03-0.855,4.736,0.029"/>
<text transform="matrix(1 0 0 1 58.6064 18.9141)" fill="#FFFFFF" font-family="'HGMaruGothicMPRO'" font-size="18">飲食</text>
</svg>
