<?xml version="1.0" encoding="utf-8"?>
<!-- Generator: Adobe Illustrator 16.0.0, SVG Export Plug-In . SVG Version: 6.00 Build 0)  -->
<!DOCTYPE svg PUBLIC "-//W3C//DTD SVG 1.1//EN" "http://www.w3.org/Graphics/SVG/1.1/DTD/svg11.dtd">
<svg version="1.1" id="レイヤー_1" xmlns="http://www.w3.org/2000/svg" xmlns:xlink="http://www.w3.org/1999/xlink" x="0px"
	 y="0px" width="166.893px" height="51.832px" viewBox="0 0 166.893 51.832" enable-background="new 0 0 166.893 51.832"
	 xml:space="preserve">
<g id="レイヤー_1_1_" display="none">
	<path display="inline" fill="#F7F9F9" d="M7.669,19.107L6.925,19.66c-0.528-1.104-1.417-2.832-2.304-4.369
		c-0.48,2.666-1.584,5.064-3.697,7.082l-0.648-0.625c2.952-2.783,3.816-6.358,3.816-10.439V0.627h0.864v10.682
		c0,0.959-0.049,1.895-0.146,2.785C5.869,15.797,7.021,17.885,7.669,19.107z M2.533,5.211c-0.219,2.305-0.648,4.896-1.368,6.336
		l-0.771-0.239c0.792-1.465,1.248-3.984,1.395-6.192L2.533,5.211z M8.196,4.515c-0.504,1.56-1.317,3.792-2.184,5.736l-0.6-0.288
		c0.861-1.968,1.632-4.225,2.04-5.736L8.196,4.515z M10.141,16.947c-0.432,1.992-1.368,4.152-2.592,5.377l-0.771-0.431
		c1.272-1.201,2.187-3.265,2.568-5.16L10.141,16.947z M8.965,8.14c-0.168,0.312-0.384,0.6-0.576,0.863l-0.72-0.432
		c1.752-2.329,2.809-4.945,3.357-7.921l0.816,0.096c-0.144,0.792-0.336,1.536-0.552,2.28h2.854h0.146h0.12l0.573,0.096
		c-0.693,5.544-2.949,9.603-6.479,11.93l-0.624-0.625c1.656-1.03,3-2.446,4.056-4.2C11.148,9.532,10.166,8.835,8.965,8.14z
		 M12.276,9.604c0.36-0.672,0.674-1.393,0.912-2.16c-0.744-0.624-1.704-1.2-2.88-1.776c-0.288,0.648-0.624,1.296-0.981,1.92
		C10.501,8.26,11.484,8.932,12.276,9.604z M13.43,6.724c0.264-0.912,0.48-1.896,0.648-2.93h-3.024
		c-0.144,0.433-0.312,0.864-0.479,1.272C11.702,5.619,12.662,6.171,13.43,6.724z M12.781,17.02c0.528,1.752,0.816,3.313,0.891,4.655
		l-0.891,0.168c-0.021-1.344-0.264-2.903-0.768-4.584L12.781,17.02z M22.502,14.5l-0.648,0.722
		c-1.654-1.271-2.854-3.625-3.552-7.489c-0.576,3.24-1.752,5.665-4.321,7.344l-0.646-0.625c2.809-1.799,3.913-4.487,4.345-8.255
		h-2.641V5.38h2.733c0.12-1.439,0.192-3.023,0.216-4.752l0.843,0.024c-0.024,1.704-0.099,3.288-0.219,4.729h3.528v0.816h-3.265
		C19.454,10.612,20.702,13.252,22.502,14.5z M16.142,16.973c0.816,1.729,1.32,3.264,1.563,4.606l-0.816,0.24
		c-0.216-1.344-0.696-2.904-1.439-4.584L16.142,16.973z M19.478,16.42c1.368,2.017,2.328,3.937,2.904,5.593l-0.84,0.313
		c-0.528-1.681-1.464-3.576-2.784-5.568L19.478,16.42z M20.222,0.987c0.912,1.032,1.562,2.016,1.944,2.952l-0.672,0.288
		c-0.387-0.912-0.984-1.872-1.824-2.904L20.222,0.987z"/>
	<path display="inline" fill="#F7F9F9" d="M31.068,8.668c-0.72-2.16-1.464-4.151-2.229-5.809l0.96-0.408
		c0.768,1.729,1.512,3.744,2.208,5.88c2.397-0.792,4.773-1.536,6.576-1.896c-0.648-1.44-1.971-3.577-2.931-4.705l0.843-0.456
		c1.029,1.224,2.397,3.6,3.048,4.993c0.384-0.049,0.72-0.072,1.029-0.072c3.648,0,5.521,1.584,5.521,4.92
		c0,2.736-1.848,4.561-5.208,4.561c-0.96,0-2.184-0.145-3.384-0.504l0.069-0.938c1.2,0.385,2.354,0.529,3.267,0.529
		c2.784,0,4.296-1.439,4.296-3.675c0-2.712-1.488-3.96-4.656-3.96c-1.656,0-4.873,0.937-8.185,2.088
		c1.368,4.178,2.544,8.689,3.216,12.313L34.5,21.748c-0.624-3.576-1.8-8.088-3.12-12.217c-1.944,0.696-3.89,1.416-5.544,2.04
		l-0.336-0.96C27.156,10.036,29.125,9.34,31.068,8.668z"/>
	<path display="inline" fill="#F7F9F9" d="M51.3,6.339c0.793,0.024,1.633,0.049,2.568,0.049c2.521,0,5.424-0.097,8.207-0.313
		c-0.525-1.536-0.938-3.144-1.15-4.656l1.009-0.12c0.19,1.513,0.575,3.121,1.129,4.705c2.545-0.191,4.944-0.479,6.744-0.863
		l0.19,0.911c-1.803,0.36-4.129,0.624-6.625,0.841c1.08,2.88,2.613,5.543,4.346,7.201l-0.743,0.841
		c-2.904-1.177-5.688-1.824-8.543-1.824c-3.072,0-4.777,1.416-4.777,3.527c0,2.809,2.856,4.129,8.499,4.129
		c0.963,0,2.02-0.048,3.146-0.119l-0.021,0.938c-1.077,0.099-2.137,0.119-3.069,0.119c-6.359,0-9.527-1.752-9.527-5.137
		c0-2.615,2.279-4.32,5.617-4.32c2.76,0,5.396,0.553,7.871,1.439c-1.367-1.439-2.765-3.958-3.771-6.723
		c-2.928,0.217-6,0.313-8.71,0.313c-0.814,0-1.632,0-2.376-0.024V6.339H51.3z"/>
	<path display="inline" fill="#F7F9F9" d="M80.244,5.019c0.385-1.416,0.672-2.736,0.861-3.84l1.012,0.119
		c-0.191,1.08-0.479,2.354-0.863,3.721h4.703v0.912h-4.971c-1.148,3.912-2.93,8.377-4.871,11.184l-0.891-0.525
		c1.92-2.664,3.625-6.89,4.729-10.657h-4.199V5.02L80.244,5.019L80.244,5.019z M90.063,8.5c-0.021,0.504-0.021,1.368-0.021,2.328
		c0,1.584,0,3.576,0.021,5.064c1.655,0.672,3.289,1.653,4.584,2.688l-0.623,0.721c-1.149-0.983-2.545-1.85-3.961-2.473v0.937
		c0,2.495-1.317,3.864-4.176,3.864c-2.714,0-4.537-1.537-4.537-3.289c0-2.016,1.729-3.336,4.537-3.336
		c1.03,0,2.135,0.191,3.215,0.554c0-1.439,0-3.24,0-4.729c0-0.96,0-1.824,0-2.328L90.063,8.5L90.063,8.5z M85.887,15.844
		c-2.308,0-3.675,0.962-3.675,2.496c0,1.32,1.634,2.425,3.603,2.425c2.278,0,3.313-0.98,3.313-3c0-0.313,0-0.769,0-1.32
		C88.021,16.061,86.916,15.844,85.887,15.844z M94.621,8.14c-1.367-1.009-4.104-2.568-5.979-3.313l0.479-0.792
		c1.991,0.864,4.515,2.28,6,3.313L94.621,8.14z"/>
	<path display="inline" fill="#F7F9F9" d="M101.916,4.347c-0.146,1.848-0.217,3.695-0.217,5.208c0,5.952,2.326,9.913,4.178,9.913
		c1.226,0,2.209-1.991,2.931-4.752l0.862,0.359c-0.938,3.336-2.063,5.447-3.744,5.447c-2.399,0-5.209-4.344-5.209-10.92
		c0-1.561,0.05-3.433,0.168-5.328L101.916,4.347z M114.949,3.939c3.385,3.265,4.633,7.152,4.773,12.385l-1.059,0.098
		c-0.068-5.064-1.316-8.905-4.517-11.882L114.949,3.939z"/>
</g>
<g display="none">
	<path display="inline" fill="#DEDDE3" stroke="#040000" stroke-width="0.25" stroke-linecap="round" stroke-linejoin="round" d="
		M22.143,17.416c0,0-14.167,1.446-11.521,11.796c0.02,0.081,0.043,0.165,0.065,0.248c2.938,10.573,35.642,7.146,38.772,6.168
		c3.134-0.979,12.24-3.328,11.553-11.359c0,0-0.54-8.201-21.321-7.613C39.694,16.658,24.714,16.781,22.143,17.416z"/>
	<path display="inline" fill="none" stroke="#040000" stroke-width="0.25" stroke-linecap="round" stroke-linejoin="round" d="
		M57.293,27.402c0,0,2.35-1.366,1.468-4.6"/>
	<path display="inline" fill="none" stroke="#040000" stroke-width="0.25" stroke-linecap="round" stroke-linejoin="round" d="
		M47.991,31.907c0,0,2.938-0.49,4.31-1.369"/>
	<path display="inline" fill="none" stroke="#040000" stroke-width="0.25" stroke-linecap="round" stroke-linejoin="round" d="
		M32.717,33.182c0,0,7.736,0.584,11.946-0.295"/>
	<path display="inline" fill="#959595" d="M28.385,35.53c0.793-0.278,0.953-3.819,0.953-3.819s26.388,1.664,28.837-7.344
		l-10.184-0.88l-7.932,2.447c0,0-1.271-0.197-5.482-0.294c-4.209-0.1-7.051-0.1-8.42-0.1c-1.371,0-8.91-1.664-8.91-1.664
		l0.587,5.042l-2.351,0.831c0,0-2.74,1.788,2.839,3.354C22.239,34.204,26.524,36.182,28.385,35.53z"/>
	<path display="inline" fill="#E1E566" stroke="#040000" stroke-width="0.25" stroke-linecap="round" stroke-linejoin="round" d="
		M30.367,12.912c0,0-2.498-1.394-8.594,4.847c-6.094,6.242-5.874,4.26-6.901,4.993c-1.028,0.736-0.588,1.616,0.366,2.498
		c0.953,0.884,16.229,8.592,33.706,3.598c0,0,8.078-2.79,8.959-4.772c0.881-1.98,0.109-2.166-1.47-2.681
		c-1.581-0.514-6.426-6.315-10.978-6.023C40.906,15.666,30.367,12.912,30.367,12.912z"/>
	<path display="inline" fill="#E6211C" stroke="#040000" stroke-width="0.25" stroke-linecap="round" stroke-linejoin="round" d="
		M25.056,14.332c0,0,3.845-2.841,3.55,4.015c-0.294,6.855,7.687,8.713,11.505,2.889c3.82-5.826,2.547,0.097,2.644,0.635
		c0.099,0.541,1.273,1.714,2.547-2.349c1.274-4.062,2.792-3.819,3.477-3.624c0.685,0.198-4.603-4.356-11.75-4.112
		C29.879,12.031,27.358,11.542,25.056,14.332z"/>
	<path display="inline" fill="#FFFFFF" stroke="#040000" stroke-width="0.25" stroke-linecap="round" stroke-linejoin="round" d="
		M36.682,13.059l2.056-8.885c0,0,2.35-1.47,3.452,1.173c1.104,2.645,3.084,0.075,3.305-0.734c0.221-0.809-1.321,5.507-1.321,5.507
		s-2.275,1.173-3.231-0.955c-0.953-2.128-2.644-1.053-3.011-0.539"/>
	
		<ellipse transform="matrix(-0.9242 0.3819 -0.3819 -0.9242 82.8731 -1.921)" display="inline" fill="#CA2726" stroke="#040000" stroke-width="0.25" stroke-linecap="round" stroke-linejoin="round" cx="41.627" cy="7.264" rx="0.856" ry="1.115"/>
	<path display="inline" fill="#237B3A" stroke="#040000" stroke-width="0.25" stroke-linecap="round" stroke-linejoin="round" d="
		M24.051,26.424c0,0-0.587-1.812-1.957,0.1c0,0-2.449-0.934-1.126,1.711c0,0-1.565,0.298-1.421,0.931c0,0-1.125,0.831,0.146,1.563
		c0,0,0.293,2.989,1.517,2.108c0,0,0.931,1.127,1.763,0.586c0,0,0.735,1.175,2.106,0.687c0,0,1.614,1.228,2.203,0.39
		c0,0,2.788,0.884,2.153-1.271c0,0,1.861,1.08,1.663-0.979c0,0,1.125-0.147,0.147-1.468c0,0,0.979-1.03-0.686-1.322
		c0,0,0.537-1.516-0.979-0.932c0,0-0.783-1.762-1.813-0.734c0,0-0.295-1.422-1.47-0.588C26.304,27.205,25.325,25.934,24.051,26.424z
		"/>
	<path display="inline" fill="#D31E19" stroke="#040000" stroke-width="0.25" d="M17.835,25.837c1.704,0,3.085,1.381,3.085,3.082
		c0,1.704-1.381,3.089-3.085,3.089c-1.703,0-3.083-1.385-3.083-3.089C14.752,27.218,16.133,25.837,17.835,25.837z"/>
	<path display="inline" fill="#237B3A" stroke="#040000" stroke-width="0.25" stroke-linecap="round" stroke-linejoin="round" d="
		M16.108,27.141c0,0,0.709-1.169,1.35-0.792c0,0-0.115-0.89,0.281-1.74c0,0,0.146,1.156,0.449,1.559c0,0,1.169-0.58,1.095-0.81
		l-0.75,1.419c0,0,1.189,0.453,1.438,0.248c0,0-0.733,0.877-1.913,0.192c0,0-0.825,1.601-0.949,1.517
		c-0.125-0.086,0.398-1.838,0.398-1.838S16.477,26.814,16.108,27.141z"/>
	
		<polygon display="inline" fill="#237B3A" stroke="#040000" stroke-width="0.25" stroke-linecap="round" stroke-linejoin="round" points="
		17.773,26.863 17.792,26.57 18.037,26.529 18.226,26.783 	"/>
	<path display="inline" fill="#FCFDFD" stroke="#040000" stroke-width="0.25" stroke-linecap="round" stroke-linejoin="round" d="
		M13.625,24.074c0,0-0.736,2.496,0.808,3.672"/>
	<path display="inline" fill="#848788" stroke="#040000" stroke-width="0.25" stroke-linecap="round" stroke-linejoin="round" d="
		M28.899,41.994c0,0-5.385-4.407-9.986-0.589c0,0-2.767,2.007,0.438,4.772c0,0,5.044,3.424,9.4-1.838c0,0,15.128-1.238,18.395,0.637
		c0,0,1.065,0.737,1.578-0.367c0,0,1.139-1.135-0.183-1.799C47.222,42.15,37.344,40.719,28.899,41.994z"/>
	<path display="inline" fill="none" stroke="#D3E4EA" stroke-width="0.25" stroke-linecap="round" stroke-linejoin="round" d="
		M27.057,42.257c0,0-1.599-2.028-5.543-1.299"/>
	<path display="inline" fill="none" stroke="#D3E4EA" stroke-width="0.25" stroke-linecap="round" stroke-linejoin="round" d="
		M20.025,41.875c0,0-0.729,0.225-1.331,1.38"/>
	<path display="inline" fill="none" stroke="#040000" stroke-width="0.25" stroke-linecap="round" stroke-linejoin="round" d="
		M85.091,32.318"/>
	<path display="inline" fill="none" stroke="#231815" stroke-width="0.25" stroke-miterlimit="10" d="M62.521,10.791l1.598,22.354
		c0,0,5.465,1.934,9.834-0.021l1.943-22.275C75.897,10.847,68.083,12.465,62.521,10.791z"/>
	
		<path display="inline" opacity="0.55" fill="#B4DFEF" stroke="#040000" stroke-width="0.25" stroke-linecap="round" stroke-linejoin="round" enable-background="new    " d="
		M62.949,15.842c0,0,1.31-2.892,5.634-0.678c0,0,1.63,0.788,3.068-0.078c0,0,3.748-1.618,3.821,0l-1.517,18.03
		c0,0-4.216,1.995-9.836,0.021L62.949,15.842z"/>
	
		<polyline display="inline" opacity="0.8" fill="none" stroke="#040000" stroke-width="0.25" stroke-linecap="round" stroke-linejoin="round" enable-background="new    " points="
		66.824,33.146 74.568,4.576 82.448,6.665 	"/>
	
		<path display="inline" opacity="0.85" fill="#80C4DE" stroke="#040000" stroke-width="0.25" stroke-linecap="round" stroke-linejoin="round" enable-background="new    " d="
		M62.899,16.282c0,0,1.177,2.788,3.12,1.034c0,0,1.86-1.656,3.456-0.002c0,0,1.665,2.364,3.582-0.421c0,0,1.488-1.977,2.365-0.928
		l-1.468,17.184c0,0-3.666,1.936-9.834,0.021L62.899,16.282z"/>
	<path display="inline" fill="none" stroke="#040000" stroke-width="0.25" stroke-linecap="round" stroke-linejoin="round" d="
		M62.521,10.482c0,0,2.463-0.426,5.649-0.538c2.412-0.088,5.233,0.006,7.727,0.593"/>
	
		<path display="inline" opacity="0.55" fill="none" stroke="#030000" stroke-width="0.25" stroke-linecap="round" stroke-linejoin="round" enable-background="new    " d="
		M64.118,33.083c0,0,4.216-1.776,9.834,0.062"/>
	
		<text transform="matrix(1 0 0 1 80.0803 39.8477)" display="inline" fill="#512E2E" font-family="'HGMaruGothicMPRO'" font-size="37.3812">飲食</text>
</g>
<g id="レイヤー_2" display="none">
	<path display="inline" fill="#DA9759" d="M21.469,12.304l-2.494,1.163l0.544,1.569c0,0,1.64,1.333,1.743,1.333
		c0.103,0,5.945,0,5.945,0c1.468,0.1,6.934-0.205,6.934-0.205l0.584-0.239l0.954-0.241c0,0,3.005-0.51,3.242-0.51
		c0.239,0,1.605-0.615,2.905-1.061c1.297-0.442,2.767-0.991,2.767-0.991l1.572-1.333l-0.272-1.432l-0.135-0.854L21.469,12.304z"/>
	<polyline display="inline" fill="#DA9759" stroke="#231815" stroke-width="0.25" stroke-miterlimit="10" points="18.889,13.398 
		25.105,9.503 46.372,9.503 	"/>
	<polyline display="inline" fill="#DA9759" stroke="#231815" stroke-width="0.25" stroke-miterlimit="10" points="40.155,13.579 
		46.167,9.691 46.167,35.825 40.155,39.714 	"/>
	<polygon display="inline" fill="#DA9759" stroke="#231815" stroke-width="0.25" stroke-miterlimit="10" points="38.515,39.63 
		18.977,39.63 18.977,13.466 40.155,13.466 40.155,39.63 	"/>
	
		<line display="inline" fill="none" stroke="#231815" stroke-width="0.25" stroke-miterlimit="10" x1="18.977" y1="22.485" x2="39.881" y2="22.485"/>
	
		<line display="inline" fill="none" stroke="#231815" stroke-width="0.25" stroke-miterlimit="10" x1="18.889" y1="31.094" x2="40.155" y2="31.094"/>
	
		<ellipse display="inline" fill="#DA9759" stroke="#231815" stroke-width="0.25" stroke-miterlimit="10" cx="26.233" cy="18.385" rx="0.53" ry="0.545"/>
	
		<ellipse display="inline" fill="#DA9759" stroke="#231815" stroke-width="0.25" stroke-miterlimit="10" cx="32.438" cy="18.385" rx="0.529" ry="0.545"/>
	<path display="inline" fill="#DA9759" stroke="#231815" stroke-width="0.25" stroke-miterlimit="10" d="M26.552,18.931
		c0,0,0.246,1.41,2.878,1.308c2.628-0.102,2.689-1.308,2.689-1.308"/>
	
		<ellipse display="inline" fill="#DA9759" stroke="#231815" stroke-width="0.25" stroke-miterlimit="10" cx="26.233" cy="26.904" rx="0.53" ry="0.547"/>
	
		<ellipse display="inline" fill="#DA9759" stroke="#231815" stroke-width="0.25" stroke-miterlimit="10" cx="32.438" cy="26.904" rx="0.529" ry="0.547"/>
	<path display="inline" fill="#DA9759" stroke="#231815" stroke-width="0.25" stroke-miterlimit="10" d="M26.552,27.451
		c0,0,0.246,1.41,2.878,1.307c2.628-0.104,2.689-1.307,2.689-1.307"/>
	<path display="inline" fill="#DA9759" stroke="#231815" stroke-width="0.25" stroke-miterlimit="10" d="M26.466,34.973
		c0.29,0,0.527,0.245,0.527,0.549c0,0.302-0.237,0.549-0.527,0.549c-0.296,0-0.532-0.247-0.532-0.549
		C25.934,35.218,26.17,34.973,26.466,34.973z"/>
	<path display="inline" fill="#DA9759" stroke="#231815" stroke-width="0.25" stroke-miterlimit="10" d="M32.664,34.973
		c0.294,0,0.531,0.245,0.531,0.549c0,0.302-0.236,0.549-0.531,0.549c-0.291,0-0.528-0.247-0.528-0.549
		C32.137,35.218,32.374,34.973,32.664,34.973z"/>
	<path display="inline" fill="#DA9759" stroke="#231815" stroke-width="0.25" stroke-miterlimit="10" d="M26.779,35.957
		c0,0,0.248,1.412,2.876,1.305c2.632-0.1,2.696-1.305,2.696-1.305"/>
	
		<rect x="35.339" y="31.995" display="inline" fill="#9D5F24" stroke="#231815" stroke-width="0.25" stroke-miterlimit="10" width="3.111" height="13.01"/>
	
		<rect x="39.681" y="33.092" display="inline" fill="#9D5F24" stroke="#231815" stroke-width="0.25" stroke-miterlimit="10" width="3.11" height="9.591"/>
	
		<rect x="65.997" y="32.812" display="inline" fill="#9D5F24" stroke="#231815" stroke-width="0.25" stroke-miterlimit="10" width="3.188" height="13.333"/>
	
		<rect x="60.505" y="33.343" display="inline" fill="#9D5F24" stroke="#231815" stroke-width="0.25" stroke-miterlimit="10" width="3.109" height="9.592"/>
	<path display="inline" fill="#9D5F24" stroke="#231815" stroke-width="0.25" stroke-miterlimit="10" d="M31.823,30.463
		c0,0-0.292,1.746,0,2.472c0.296,0.717,27.883,2.09,39.669,0.058c0,0,0.666-1.044,0-2.661"/>
	
		<ellipse display="inline" fill="#9D5F24" stroke="#231815" stroke-width="0.25" stroke-miterlimit="10" cx="51.658" cy="30.333" rx="19.835" ry="1.049"/>
	
		<text transform="matrix(1 0 0 1 79.469 39.6943)" display="inline" fill="#934141" font-family="'HGMaruGothicMPRO'" font-size="38.2654">家具</text>
</g>
<g id="レイヤー_2_1_">
	
		<rect x="38.624" y="26.664" fill="#4083C5" stroke="#231815" stroke-width="0.25" stroke-miterlimit="10" width="22.431" height="1.968"/>
	<line fill="none" stroke="#231815" stroke-width="0.25" stroke-miterlimit="10" x1="40.458" y1="26.664" x2="40.458" y2="28.632"/>
	<line fill="none" stroke="#231815" stroke-width="0.25" stroke-miterlimit="10" x1="41.895" y1="26.664" x2="41.895" y2="28.632"/>
	<line fill="none" stroke="#231815" stroke-width="0.25" stroke-miterlimit="10" x1="59.049" y1="26.862" x2="59.049" y2="28.632"/>
	<line fill="none" stroke="#231815" stroke-width="0.25" stroke-miterlimit="10" x1="57.613" y1="28.632" x2="57.613" y2="26.664"/>
	<line fill="none" stroke="#231815" stroke-width="0.25" stroke-miterlimit="10" x1="46.829" y1="26.664" x2="46.829" y2="28.632"/>
	<line fill="none" stroke="#231815" stroke-width="0.25" stroke-miterlimit="10" x1="52.623" y1="26.664" x2="52.623" y2="28.632"/>
	<polygon fill="none" stroke="#231815" stroke-width="0.25" stroke-miterlimit="10" points="48.362,27.335 48.362,27.958 
		50.544,27.958 50.815,27.958 50.974,27.958 50.974,27.335 	"/>
	<polygon fill="#4083C5" stroke="#231815" stroke-width="0.25" stroke-miterlimit="10" points="38.624,28.632 38.624,45.801 
		46.426,45.801 49.837,37.213 53.198,45.801 61.052,45.801 61.052,28.632 	"/>
	<path fill="#CFD834" stroke="#231815" stroke-width="0.25" stroke-miterlimit="10" d="M34.818,6.651H30.19l-8.771,11.302
		l6.698,4.291l3.521-3.959l-0.096,16.502h18.32V18.282l3.281,3.96l6.362-4.291L51.309,6.648h-5.593
		C45.713,6.651,41.572,12.838,34.818,6.651z"/>
	<text transform="matrix(1 0 0 1 79.1941 39.0098)" fill="#FFFFFF" font-family="'HGMaruGothicMPRO'" font-size="38.757">衣類</text>
</g>
</svg>
