<?xml version="1.0" encoding="utf-8"?>
<!-- Generator: Adobe Illustrator 16.0.0, SVG Export Plug-In . SVG Version: 6.00 Build 0)  -->
<!DOCTYPE svg PUBLIC "-//W3C//DTD SVG 1.1//EN" "http://www.w3.org/Graphics/SVG/1.1/DTD/svg11.dtd">
<svg version="1.1" id="レイヤー_1" xmlns="http://www.w3.org/2000/svg" xmlns:xlink="http://www.w3.org/1999/xlink" x="0px"
	 y="0px" width="120px" height="23px" viewBox="0 0 120 23" enable-background="new 0 0 120 23" xml:space="preserve">
<g id="レイヤー_1_1_" display="none">
	<path display="inline" fill="#FF0000" d="M7.669,19.107L6.925,19.66c-0.528-1.104-1.417-2.832-2.304-4.369
		c-0.48,2.666-1.584,5.064-3.697,7.082l-0.648-0.625c2.952-2.783,3.816-6.359,3.816-10.44V0.627h0.864v10.681
		c0,0.959-0.049,1.895-0.145,2.786C5.869,15.797,7.021,17.885,7.669,19.107z M2.533,5.211c-0.217,2.304-0.648,4.896-1.368,6.336
		l-0.769-0.24c0.792-1.464,1.248-3.984,1.393-6.192L2.533,5.211z M8.196,4.515c-0.504,1.56-1.319,3.792-2.184,5.737l-0.6-0.288
		c0.863-1.968,1.632-4.225,2.04-5.737L8.196,4.515z M10.141,16.947c-0.432,1.992-1.368,4.152-2.592,5.377L6.78,21.893
		c1.272-1.201,2.185-3.264,2.568-5.16L10.141,16.947z M8.965,8.14c-0.168,0.312-0.384,0.6-0.576,0.864l-0.72-0.432
		c1.752-2.329,2.809-4.945,3.359-7.921l0.816,0.096c-0.144,0.792-0.336,1.536-0.552,2.28h2.855h0.145h0.12l0.575,0.096
		c-0.695,5.544-2.951,9.602-6.479,11.93l-0.624-0.625c1.656-1.031,3-2.447,4.056-4.201C11.148,9.532,10.166,8.835,8.965,8.14z
		 M12.276,9.604c0.36-0.672,0.672-1.392,0.912-2.16c-0.744-0.624-1.704-1.2-2.88-1.776c-0.288,0.648-0.624,1.296-0.983,1.92
		C10.501,8.26,11.484,8.932,12.276,9.604z M13.43,6.724c0.264-0.912,0.48-1.896,0.648-2.929h-3.024
		c-0.144,0.432-0.312,0.864-0.48,1.272C11.702,5.619,12.662,6.171,13.43,6.724z M12.781,17.02c0.528,1.752,0.816,3.313,0.889,4.656
		l-0.889,0.168c-0.023-1.344-0.264-2.904-0.768-4.584L12.781,17.02z M22.502,14.5l-0.648,0.721
		c-1.656-1.271-2.855-3.625-3.552-7.489c-0.576,3.24-1.752,5.665-4.321,7.344l-0.647-0.625c2.809-1.799,3.913-4.487,4.345-8.255
		h-2.641V5.38h2.735c0.12-1.44,0.192-3.024,0.216-4.752l0.841,0.024c-0.024,1.704-0.097,3.288-0.217,4.729h3.528v0.816h-3.265
		C19.454,10.612,20.702,13.252,22.502,14.5z M16.142,16.973c0.816,1.729,1.32,3.264,1.561,4.607l-0.816,0.24
		c-0.216-1.344-0.696-2.904-1.44-4.584L16.142,16.973z M19.478,16.42c1.368,2.016,2.328,3.936,2.904,5.592l-0.84,0.313
		c-0.528-1.681-1.464-3.576-2.784-5.568L19.478,16.42z M20.222,0.987c0.912,1.032,1.56,2.016,1.944,2.952l-0.672,0.288
		c-0.385-0.912-0.984-1.872-1.824-2.904L20.222,0.987z"/>
	<path display="inline" fill="#FF0000" d="M31.068,8.668c-0.72-2.16-1.464-4.152-2.231-5.809l0.96-0.408
		c0.768,1.728,1.512,3.744,2.208,5.88c2.399-0.792,4.775-1.536,6.576-1.896c-0.648-1.44-1.969-3.577-2.929-4.705l0.841-0.456
		c1.031,1.224,2.399,3.6,3.048,4.993c0.384-0.048,0.72-0.072,1.031-0.072c3.648,0,5.521,1.584,5.521,4.92
		c0,2.736-1.848,4.561-5.208,4.561c-0.96,0-2.184-0.145-3.384-0.504l0.071-0.938c1.2,0.385,2.353,0.529,3.265,0.529
		c2.784,0,4.296-1.439,4.296-3.674c0-2.712-1.488-3.96-4.656-3.96c-1.656,0-4.873,0.936-8.185,2.088
		c1.368,4.177,2.544,8.689,3.216,12.313L34.5,21.748c-0.624-3.576-1.8-8.088-3.12-12.217c-1.944,0.696-3.89,1.416-5.544,2.04
		l-0.336-0.96C27.156,10.036,29.125,9.34,31.068,8.668z"/>
	<path display="inline" fill="#FF0000" d="M51.301,6.339c0.792,0.024,1.632,0.048,2.568,0.048c2.52,0,5.424-0.096,8.207-0.312
		c-0.526-1.536-0.936-3.144-1.15-4.656l1.008-0.12c0.191,1.512,0.576,3.121,1.129,4.705c2.545-0.192,4.944-0.48,6.744-0.864
		l0.191,0.912c-1.801,0.36-4.129,0.624-6.625,0.84c1.08,2.88,2.615,5.543,4.345,7.202l-0.743,0.84
		c-2.904-1.176-5.688-1.824-8.543-1.824c-3.072,0-4.777,1.416-4.777,3.527c0,2.809,2.856,4.129,8.499,4.129
		c0.961,0,2.017-0.047,3.145-0.119l-0.021,0.938c-1.08,0.098-2.137,0.119-3.071,0.119c-6.36,0-9.528-1.752-9.528-5.137
		c0-2.615,2.279-4.32,5.617-4.32c2.76,0,5.398,0.553,7.872,1.439c-1.368-1.439-2.763-3.958-3.771-6.722
		c-2.928,0.216-6,0.312-8.71,0.312c-0.816,0-1.632,0-2.376-0.024V6.339H51.301z"/>
	<path display="inline" fill="#FF0000" d="M80.244,5.019c0.385-1.416,0.672-2.736,0.863-3.84l1.009,0.12
		c-0.191,1.08-0.479,2.353-0.863,3.72h4.704v0.912h-4.969c-1.151,3.913-2.93,8.377-4.873,11.184l-0.889-0.525
		c1.92-2.664,3.625-6.89,4.729-10.658h-4.199V5.02L80.244,5.019L80.244,5.019z M90.063,8.5c-0.022,0.504-0.022,1.368-0.022,2.328
		c0,1.584,0,3.576,0.022,5.064c1.655,0.672,3.289,1.654,4.584,2.688l-0.623,0.721c-1.151-0.984-2.545-1.85-3.961-2.473v0.936
		c0,2.496-1.319,3.865-4.176,3.865c-2.714,0-4.537-1.537-4.537-3.289c0-2.016,1.729-3.336,4.537-3.336
		c1.03,0,2.135,0.191,3.215,0.553c0-1.439,0-3.24,0-4.729c0-0.96,0-1.824,0-2.328H90.063L90.063,8.5z M85.887,15.844
		c-2.307,0-3.674,0.961-3.674,2.496c0,1.32,1.633,2.424,3.602,2.424c2.279,0,3.313-0.98,3.313-3c0-0.312,0-0.768,0-1.32
		C88.021,16.061,86.916,15.844,85.887,15.844z M94.621,8.14c-1.367-1.008-4.104-2.568-5.977-3.312l0.479-0.792
		c1.992,0.864,4.514,2.28,6,3.312L94.621,8.14z"/>
	<path display="inline" fill="#FF0000" d="M101.916,4.347c-0.145,1.848-0.217,3.696-0.217,5.208c0,5.953,2.328,9.914,4.177,9.914
		c1.226,0,2.209-1.992,2.931-4.752l0.862,0.359c-0.937,3.336-2.063,5.447-3.744,5.447c-2.399,0-5.208-4.344-5.208-10.92
		c0-1.56,0.049-3.432,0.168-5.328L101.916,4.347z M114.949,3.939c3.384,3.265,4.632,7.153,4.775,12.385l-1.058,0.098
		c-0.069-5.065-1.317-8.906-4.515-11.882L114.949,3.939z"/>
</g>
<text transform="matrix(1 0 0 1 35.8179 18.332)" fill="#FFFFFF" font-family="'HGMaruGothicMPRO'" font-size="18">食品関連</text>
<polygon fill="#B9B8B8" stroke="#040000" stroke-width="0.25" stroke-linecap="round" stroke-linejoin="round" points="
	10.384,5.289 10.37,7.522 6.304,12.986 5.564,11.572 "/>
<polygon fill="#B7BABA" stroke="#040000" stroke-width="0.25" stroke-linecap="round" stroke-linejoin="round" points="
	10.427,5.272 10.427,7.33 23.79,7.361 23.946,5.272 "/>
<polygon fill="#CDB6BE" stroke="#040000" stroke-width="0.25" stroke-linecap="round" stroke-linejoin="round" points="10.37,7.104 
	6.36,12.504 19.354,12.536 23.42,7.104 "/>
<path fill="#F7E6E3" stroke="#040000" stroke-width="0.25" d="M11.917,9.321c0,0-0.386,1.843,0.686,1.8
	c1.072-0.043,2.914-0.686,3.814-0.214c0.9,0.471,4.5-0.171,4.371-1.886l-1.114-0.343l-2.828-0.171c0,0-0.343-0.129-1.114-0.043
	s-1.671,0.257-1.671,0.257L11.917,9.321z"/>
<path fill="#F7EFED" stroke="#040000" stroke-width="0.25" d="M15.538,6.472c0,0-1.971-0.171-3,1.372
	c-1.028,1.542-0.557,2.914,1.286,2.4c1.843-0.515,3.085-0.043,3.085-0.043s1.286,0.557,2.229,0c0.871-0.515,2.486-0.257,1.243-2.314
	C19.137,5.829,16.823,6.9,15.538,6.472z"/>
<path fill="#EF8774" stroke="#040000" stroke-width="0.25" stroke-linecap="round" stroke-linejoin="round" d="M14.338,7.243
	c0,0-1.8,0.557-1.714,1.414c0,0-0.3,1.2,0.3,1.114c0.6-0.086,1.371-0.3,1.371-0.3s1.843-0.086,2.143,0.042
	c0.3,0.129,1.458,0.343,1.458,0.343s0.654-0.047,0.685-0.643c0.043-0.814-0.171-1.5-0.085-1.628
	c0.085-0.128-0.472-0.386-1.286-0.514l-1.671-0.043C15.538,7.029,14.766,7.029,14.338,7.243z"/>
<path fill="#EF8774" stroke="#040000" stroke-width="0.25" stroke-linecap="round" stroke-linejoin="round" d="M18.794,7.243
	c0,0,0.171,0.942,0.385,1.157c0.215,0.214,1.029,0.386,1.029,0.386C20.218,8.847,20.268,7.802,18.794,7.243z"/>
<path fill="#EF8774" stroke="#040000" stroke-width="0.25" stroke-linecap="round" stroke-linejoin="round" d="M19.03,8.893
	c0,0,0.814,0.3,0.986,0.3s-0.214,0.6-0.729,0.514C18.773,9.622,19.073,9.15,19.03,8.893z"/>
<path fill="#F7E6E3" stroke="#040000" stroke-width="0.25" d="M8.231,11.507c0,0-0.386,1.843,0.686,1.8
	c1.071-0.043,2.914-0.686,3.814-0.214s4.5-0.171,4.371-1.886l-1.114-0.343l-2.829-0.171c0,0-0.343-0.129-1.114-0.043
	c-0.771,0.086-1.671,0.257-1.671,0.257L8.231,11.507z"/>
<path fill="#F7EFED" stroke="#040000" stroke-width="0.25" d="M11.681,8.636c0,0-1.971-0.171-3,1.372
	c-1.028,1.542-0.557,2.915,1.286,2.4s3.085-0.043,3.085-0.043s1.286,0.558,2.229,0c0.871-0.515,2.485-0.257,1.243-2.314
	C15.281,7.993,12.966,9.064,11.681,8.636z"/>
<path fill="#EF8774" stroke="#040000" stroke-width="0.25" stroke-linecap="round" stroke-linejoin="round" d="M10.481,9.407
	c0,0-1.799,0.557-1.714,1.414c0,0-0.3,1.2,0.3,1.114s1.372-0.3,1.372-0.3s1.842-0.086,2.143,0.042
	c0.3,0.129,1.457,0.343,1.457,0.343s0.654-0.047,0.686-0.643c0.043-0.814-0.171-1.5-0.086-1.628
	c0.086-0.128-0.471-0.386-1.286-0.514l-1.671-0.043C11.681,9.193,10.91,9.193,10.481,9.407z"/>
<path fill="#EF8774" stroke="#040000" stroke-width="0.25" stroke-linecap="round" stroke-linejoin="round" d="M14.938,9.407
	c0,0,0.171,0.942,0.385,1.157c0.214,0.214,1.029,0.386,1.029,0.386C16.362,11.011,16.412,9.966,14.938,9.407z"/>
<path fill="#EF8774" stroke="#040000" stroke-width="0.25" stroke-linecap="round" stroke-linejoin="round" d="M15.152,10.95
	c0,0,0.814,0.3,0.985,0.3s-0.214,0.6-0.729,0.514C14.895,11.678,15.195,11.207,15.152,10.95z"/>
<polygon fill="#FFFFFF" stroke="#040000" stroke-width="0.25" stroke-linecap="round" stroke-linejoin="round" points="23.97,5.321 
	19.222,12.52 19.227,13.838 19.762,13.844 23.97,7.389 "/>
<polygon fill="#FFFFFF" stroke="#040000" stroke-width="0.25" stroke-linecap="round" stroke-linejoin="round" points="
	19.752,13.899 19.752,11.707 5.564,11.668 5.564,13.887 "/>
<polygon fill="#B7BABA" stroke="#040000" stroke-width="0.25" stroke-linecap="round" stroke-linejoin="round" points="
	19.54,11.074 19.524,13.308 14.928,18.771 14.092,17.357 "/>
<polygon fill="#BBBDBF" stroke="#040000" stroke-width="0.25" stroke-linecap="round" stroke-linejoin="round" points="
	19.588,11.058 19.588,13.115 34.694,13.146 34.871,11.058 "/>
<polygon fill="#B7CAD2" stroke="#040000" stroke-width="0.25" stroke-linecap="round" stroke-linejoin="round" points="
	19.524,12.89 14.992,18.289 29.68,18.321 34.276,12.89 "/>
<polygon fill="#FFFFFF" stroke="#040000" stroke-width="0.25" stroke-linecap="round" stroke-linejoin="round" points="
	34.898,11.106 29.531,18.305 29.536,19.623 30.141,19.629 34.898,13.174 "/>
<path fill="#76ABC0" stroke="#040000" stroke-width="0.25" stroke-linecap="round" stroke-linejoin="round" d="M27.647,14.095
	c0,0,2.853-1.599,2.282-0.128c0,0-0.37,0.964-0.594,1.277c-0.225,0.313-0.249,1.053-1.712-0.916L27.647,14.095z"/>
<path fill="#9CD2EC" stroke="#040000" stroke-width="0.25" stroke-linecap="round" stroke-linejoin="round" d="M20.338,13.844
	l-1.028,0.428c0,0,1.114,1.114,3.728,1.371c0,0,3.343,0.601,4.585-1.371c0,0-0.042-0.514-0.685-0.857
	c-0.643-0.342-3.385-2.057-7.2-0.042L20.338,13.844z"/>
<path fill="#76ABC0" stroke="#040000" stroke-width="0.25" stroke-linecap="round" stroke-linejoin="round" d="M23.853,13.576
	c0,0,1.842-1.072,1.382,0.149l-0.472,1.028c0,0-0.278,0.943-1.125-0.332"/>
<circle fill="#FFFFFF" stroke="#040000" stroke-width="0.25" stroke-linecap="round" stroke-linejoin="bevel" cx="22.117" cy="12.622" r="0.835"/>
<path fill="#76ABC0" stroke="#040000" stroke-width="0.25" stroke-linecap="round" stroke-linejoin="round" d="M27.239,16.688
	c0,0,2.358-1.84,1.964-0.61l-0.57,1.575c0,0-0.6,1.961-1.425-0.686l0.021-0.247"/>
<path fill="#9CD2EC" stroke="#040000" stroke-width="0.25" stroke-linecap="round" stroke-linejoin="round" d="M18.967,15.771
	l0.814,0.557l-0.943,0.215c0,0,0.171,1.242,3.257,1.629c0,0,4.114,0.214,5.1-1.329C27.195,16.843,26.466,12.814,18.967,15.771z"/>
<circle fill="#FFFFFF" stroke="#040000" stroke-width="0.25" stroke-linecap="round" stroke-linejoin="bevel" cx="21.56" cy="15.064" r="0.835"/>
<line fill="#9CD2EC" stroke="#040000" stroke-width="0.25" stroke-linecap="round" stroke-linejoin="bevel" x1="21.592" y1="12.076" x2="22.588" y2="13.137"/>
<line fill="#9CD2EC" stroke="#040000" stroke-width="0.25" stroke-linecap="round" stroke-linejoin="bevel" x1="22.717" y1="12.118" x2="21.484" y2="13.072"/>
<line fill="#9CD2EC" stroke="#040000" stroke-width="0.25" stroke-linecap="round" stroke-linejoin="bevel" x1="21.035" y1="14.48" x2="22.079" y2="15.646"/>
<line fill="#9CD2EC" stroke="#040000" stroke-width="0.25" stroke-linecap="round" stroke-linejoin="bevel" x1="22.184" y1="14.602" x2="20.954" y2="15.525"/>
<path fill="#76ABC0" stroke="#040000" stroke-width="0.25" stroke-linecap="round" stroke-linejoin="round" d="M23.017,16.146
	c0,0,1.629-0.964,1.307-0.117l-0.45,0.985c0,0-0.343,1.007-0.825-0.172"/>
<polygon fill="#FFFFFF" stroke="#040000" stroke-width="0.25" stroke-linecap="round" stroke-linejoin="round" points="
	30.13,19.685 30.13,17.492 14.092,17.453 14.092,19.672 "/>
</svg>
