<?xml version="1.0" encoding="utf-8"?>
<!-- Generator: Adobe Illustrator 16.0.0, SVG Export Plug-In . SVG Version: 6.00 Build 0)  -->
<!DOCTYPE svg PUBLIC "-//W3C//DTD SVG 1.1//EN" "http://www.w3.org/Graphics/SVG/1.1/DTD/svg11.dtd">
<svg version="1.1" id="レイヤー_1" xmlns="http://www.w3.org/2000/svg" xmlns:xlink="http://www.w3.org/1999/xlink" x="0px"
	 y="0px" width="228.945px" height="51.832px" viewBox="0 0 228.945 51.832" enable-background="new 0 0 228.945 51.832"
	 xml:space="preserve">
<g id="レイヤー_1_1_" display="none">
	<path display="inline" fill="#F7F9F9" d="M7.669,19.107L6.925,19.66c-0.527-1.104-1.417-2.832-2.304-4.369
		c-0.479,2.666-1.584,5.064-3.697,7.082l-0.647-0.625c2.952-2.783,3.815-6.358,3.815-10.439V0.627h0.864v10.682
		c0,0.959-0.049,1.895-0.146,2.785C5.869,15.797,7.021,17.885,7.669,19.107z M2.533,5.211c-0.22,2.305-0.648,4.896-1.368,6.336
		l-0.771-0.239C1.186,9.843,1.642,7.324,1.79,5.116L2.533,5.211z M8.196,4.515c-0.504,1.56-1.316,3.792-2.184,5.736L5.412,9.963
		c0.86-1.968,1.632-4.225,2.04-5.736L8.196,4.515z M10.141,16.947c-0.433,1.992-1.368,4.152-2.593,5.377l-0.771-0.431
		c1.271-1.201,2.188-3.265,2.568-5.16L10.141,16.947z M8.965,8.14c-0.168,0.312-0.384,0.6-0.575,0.863L7.669,8.571
		c1.752-2.329,2.81-4.945,3.356-7.921l0.815,0.096c-0.144,0.792-0.336,1.536-0.552,2.28h2.854h0.146h0.12l0.572,0.096
		c-0.692,5.544-2.948,9.603-6.479,11.93L7.88,14.427c1.656-1.03,3-2.446,4.057-4.2C11.148,9.532,10.166,8.835,8.965,8.14z
		 M12.276,9.604c0.36-0.672,0.675-1.393,0.912-2.16c-0.744-0.624-1.704-1.2-2.88-1.776c-0.288,0.648-0.624,1.296-0.98,1.92
		C10.501,8.26,11.484,8.932,12.276,9.604z M13.43,6.724c0.264-0.912,0.479-1.896,0.647-2.93h-3.023
		c-0.145,0.433-0.313,0.864-0.479,1.272C11.702,5.619,12.662,6.171,13.43,6.724z M12.781,17.02c0.528,1.752,0.816,3.313,0.892,4.655
		l-0.892,0.168c-0.021-1.344-0.264-2.903-0.768-4.584L12.781,17.02z M22.502,14.5l-0.647,0.722C20.2,13.951,19,11.597,18.302,7.733
		c-0.575,3.24-1.752,5.665-4.32,7.344l-0.646-0.625c2.81-1.799,3.913-4.487,4.346-8.255h-2.642V5.38h2.732
		c0.12-1.439,0.191-3.023,0.216-4.752l0.844,0.024c-0.023,1.704-0.1,3.288-0.22,4.729h3.528v0.816h-3.266
		C19.454,10.612,20.702,13.252,22.502,14.5z M16.142,16.973c0.815,1.729,1.319,3.264,1.563,4.606l-0.815,0.24
		c-0.217-1.344-0.696-2.904-1.438-4.584L16.142,16.973z M19.478,16.42c1.368,2.017,2.328,3.937,2.903,5.593l-0.84,0.313
		c-0.527-1.681-1.464-3.576-2.784-5.568L19.478,16.42z M20.222,0.987c0.911,1.032,1.563,2.016,1.943,2.952l-0.672,0.288
		c-0.388-0.912-0.984-1.872-1.824-2.904L20.222,0.987z"/>
	<path display="inline" fill="#F7F9F9" d="M31.068,8.668c-0.72-2.16-1.464-4.151-2.229-5.809l0.96-0.408
		c0.769,1.729,1.513,3.744,2.208,5.88c2.396-0.792,4.772-1.536,6.576-1.896c-0.647-1.44-1.972-3.577-2.932-4.705l0.844-0.456
		c1.028,1.224,2.396,3.6,3.048,4.993c0.384-0.049,0.721-0.072,1.028-0.072c3.648,0,5.521,1.584,5.521,4.92
		c0,2.736-1.848,4.561-5.208,4.561c-0.96,0-2.184-0.145-3.384-0.504l0.068-0.938c1.2,0.385,2.354,0.529,3.268,0.529
		c2.784,0,4.296-1.439,4.296-3.675c0-2.712-1.487-3.96-4.655-3.96c-1.656,0-4.873,0.937-8.186,2.088
		c1.368,4.178,2.544,8.689,3.216,12.313L34.5,21.748c-0.624-3.576-1.8-8.088-3.12-12.217c-1.943,0.696-3.89,1.416-5.544,2.04
		l-0.336-0.96C27.156,10.036,29.125,9.34,31.068,8.668z"/>
	<path display="inline" fill="#F7F9F9" d="M51.3,6.339c0.793,0.024,1.634,0.049,2.568,0.049c2.521,0,5.424-0.097,8.207-0.313
		c-0.525-1.536-0.938-3.144-1.15-4.656l1.01-0.12c0.189,1.513,0.574,3.121,1.129,4.705c2.545-0.191,4.943-0.479,6.744-0.863
		l0.189,0.911c-1.804,0.36-4.129,0.624-6.625,0.841c1.08,2.88,2.612,5.543,4.346,7.201l-0.742,0.841
		c-2.904-1.177-5.688-1.824-8.543-1.824c-3.072,0-4.777,1.416-4.777,3.527c0,2.809,2.856,4.129,8.499,4.129
		c0.964,0,2.021-0.048,3.146-0.119l-0.021,0.938c-1.076,0.099-2.137,0.119-3.068,0.119c-6.358,0-9.526-1.752-9.526-5.137
		c0-2.615,2.278-4.32,5.616-4.32c2.761,0,5.396,0.553,7.871,1.439c-1.366-1.439-2.766-3.958-3.771-6.723
		c-2.928,0.217-6,0.313-8.71,0.313c-0.813,0-1.632,0-2.376-0.024V6.339H51.3z"/>
	<path display="inline" fill="#F7F9F9" d="M80.244,5.019c0.385-1.416,0.672-2.736,0.86-3.84l1.013,0.119
		c-0.191,1.08-0.479,2.354-0.863,3.721h4.703v0.912h-4.972c-1.147,3.912-2.93,8.377-4.87,11.184l-0.892-0.525
		c1.92-2.664,3.625-6.89,4.729-10.657h-4.199V5.02L80.244,5.019L80.244,5.019z M90.063,8.5c-0.021,0.504-0.021,1.368-0.021,2.328
		c0,1.584,0,3.576,0.021,5.064c1.654,0.672,3.289,1.653,4.584,2.688l-0.623,0.721c-1.148-0.983-2.545-1.85-3.961-2.473v0.937
		c0,2.495-1.316,3.864-4.176,3.864c-2.715,0-4.537-1.537-4.537-3.289c0-2.016,1.729-3.336,4.537-3.336
		c1.029,0,2.135,0.191,3.215,0.554c0-1.439,0-3.24,0-4.729c0-0.96,0-1.824,0-2.328L90.063,8.5L90.063,8.5z M85.887,15.844
		c-2.309,0-3.676,0.962-3.676,2.496c0,1.32,1.635,2.425,3.604,2.425c2.277,0,3.313-0.98,3.313-3c0-0.313,0-0.769,0-1.32
		C88.021,16.061,86.916,15.844,85.887,15.844z M94.621,8.14c-1.367-1.009-4.104-2.568-5.979-3.313l0.479-0.792
		c1.99,0.864,4.516,2.28,6,3.313L94.621,8.14z"/>
	<path display="inline" fill="#F7F9F9" d="M101.916,4.347c-0.146,1.848-0.217,3.695-0.217,5.208c0,5.952,2.325,9.913,4.178,9.913
		c1.227,0,2.209-1.991,2.932-4.752l0.861,0.359c-0.938,3.336-2.063,5.447-3.744,5.447c-2.398,0-5.209-4.344-5.209-10.92
		c0-1.561,0.051-3.433,0.168-5.328L101.916,4.347z M114.949,3.939c3.385,3.265,4.633,7.152,4.772,12.385l-1.06,0.098
		c-0.067-5.064-1.315-8.905-4.518-11.882L114.949,3.939z"/>
</g>
<g display="none">
	<path display="inline" fill="#DEDDE3" stroke="#040000" stroke-width="0.25" stroke-linecap="round" stroke-linejoin="round" d="
		M22.143,17.416c0,0-14.167,1.446-11.521,11.796c0.021,0.081,0.043,0.165,0.064,0.248c2.938,10.573,35.643,7.146,38.771,6.168
		c3.134-0.979,12.24-3.328,11.554-11.359c0,0-0.54-8.201-21.321-7.613C39.694,16.658,24.714,16.781,22.143,17.416z"/>
	<path display="inline" fill="none" stroke="#040000" stroke-width="0.25" stroke-linecap="round" stroke-linejoin="round" d="
		M57.293,27.402c0,0,2.351-1.366,1.469-4.602"/>
	<path display="inline" fill="none" stroke="#040000" stroke-width="0.25" stroke-linecap="round" stroke-linejoin="round" d="
		M47.991,31.907c0,0,2.938-0.49,4.31-1.369"/>
	<path display="inline" fill="none" stroke="#040000" stroke-width="0.25" stroke-linecap="round" stroke-linejoin="round" d="
		M32.717,33.182c0,0,7.736,0.584,11.946-0.295"/>
	<path display="inline" fill="#959595" d="M28.385,35.53c0.794-0.278,0.953-3.819,0.953-3.819s26.389,1.664,28.837-7.344
		l-10.184-0.88l-7.933,2.447c0,0-1.271-0.197-5.481-0.294c-4.209-0.1-7.052-0.1-8.42-0.1c-1.371,0-8.91-1.664-8.91-1.664
		l0.587,5.042l-2.352,0.831c0,0-2.739,1.788,2.839,3.354C22.239,34.204,26.524,36.182,28.385,35.53z"/>
	<path display="inline" fill="#E1E566" stroke="#040000" stroke-width="0.25" stroke-linecap="round" stroke-linejoin="round" d="
		M30.367,12.912c0,0-2.498-1.394-8.595,4.847c-6.094,6.242-5.874,4.26-6.9,4.993c-1.027,0.736-0.588,1.616,0.365,2.498
		c0.953,0.884,16.229,8.592,33.706,3.598c0,0,8.078-2.79,8.959-4.771c0.882-1.98,0.109-2.166-1.47-2.681
		c-1.581-0.514-6.427-6.315-10.979-6.023C40.906,15.666,30.367,12.912,30.367,12.912z"/>
	<path display="inline" fill="#E6211C" stroke="#040000" stroke-width="0.25" stroke-linecap="round" stroke-linejoin="round" d="
		M25.056,14.332c0,0,3.845-2.841,3.55,4.015c-0.294,6.855,7.688,8.713,11.505,2.889c3.82-5.826,2.548,0.097,2.645,0.635
		c0.1,0.541,1.272,1.714,2.548-2.349c1.273-4.062,2.792-3.819,3.477-3.624c0.686,0.198-4.604-4.356-11.75-4.112
		C29.879,12.031,27.358,11.542,25.056,14.332z"/>
	<path display="inline" fill="#FFFFFF" stroke="#040000" stroke-width="0.25" stroke-linecap="round" stroke-linejoin="round" d="
		M36.682,13.059l2.056-8.885c0,0,2.351-1.47,3.452,1.173c1.104,2.645,3.084,0.075,3.306-0.734c0.221-0.809-1.321,5.507-1.321,5.507
		s-2.274,1.173-3.23-0.955c-0.952-2.128-2.645-1.053-3.011-0.539"/>
	
		<ellipse transform="matrix(0.9243 -0.3817 0.3817 0.9243 0.3798 16.4394)" display="inline" fill="#CA2726" stroke="#040000" stroke-width="0.25" stroke-linecap="round" stroke-linejoin="round" cx="41.629" cy="7.262" rx="0.856" ry="1.115"/>
	<path display="inline" fill="#237B3A" stroke="#040000" stroke-width="0.25" stroke-linecap="round" stroke-linejoin="round" d="
		M24.051,26.424c0,0-0.587-1.812-1.956,0.1c0,0-2.449-0.934-1.127,1.711c0,0-1.564,0.3-1.421,0.933c0,0-1.125,0.831,0.146,1.563
		c0,0,0.293,2.988,1.518,2.107c0,0,0.932,1.127,1.764,0.586c0,0,0.734,1.176,2.105,0.688c0,0,1.613,1.229,2.203,0.391
		c0,0,2.787,0.884,2.152-1.271c0,0,1.86,1.08,1.663-0.979c0,0,1.125-0.146,0.146-1.468c0,0,0.979-1.03-0.687-1.322
		c0,0,0.537-1.517-0.979-0.933c0,0-0.783-1.762-1.813-0.733c0,0-0.295-1.422-1.471-0.588C26.304,27.205,25.325,25.934,24.051,26.424
		z"/>
	<path display="inline" fill="#D31E19" stroke="#040000" stroke-width="0.25" d="M17.835,25.837c1.704,0,3.085,1.381,3.085,3.082
		c0,1.704-1.381,3.089-3.085,3.089c-1.703,0-3.083-1.385-3.083-3.089C14.752,27.218,16.133,25.837,17.835,25.837z"/>
	<path display="inline" fill="#237B3A" stroke="#040000" stroke-width="0.25" stroke-linecap="round" stroke-linejoin="round" d="
		M16.108,27.141c0,0,0.709-1.167,1.351-0.792c0,0-0.114-0.89,0.28-1.74c0,0,0.146,1.156,0.449,1.559c0,0,1.169-0.58,1.096-0.81
		l-0.75,1.419c0,0,1.188,0.453,1.438,0.248c0,0-0.733,0.877-1.913,0.19c0,0-0.825,1.603-0.949,1.519
		c-0.125-0.086,0.397-1.838,0.397-1.838S16.477,26.814,16.108,27.141z"/>
	
		<polygon display="inline" fill="#237B3A" stroke="#040000" stroke-width="0.25" stroke-linecap="round" stroke-linejoin="round" points="
		17.773,26.863 17.792,26.57 18.037,26.529 18.226,26.783 	"/>
	<path display="inline" fill="#FCFDFD" stroke="#040000" stroke-width="0.25" stroke-linecap="round" stroke-linejoin="round" d="
		M13.625,24.074c0,0-0.735,2.496,0.809,3.672"/>
	<path display="inline" fill="#848788" stroke="#040000" stroke-width="0.25" stroke-linecap="round" stroke-linejoin="round" d="
		M28.899,41.994c0,0-5.385-4.407-9.985-0.589c0,0-2.768,2.007,0.438,4.771c0,0,5.044,3.426,9.399-1.838
		c0,0,15.128-1.236,18.396,0.639c0,0,1.064,0.735,1.578-0.367c0,0,1.139-1.135-0.184-1.799
		C47.222,42.15,37.344,40.719,28.899,41.994z"/>
	<path display="inline" fill="none" stroke="#D3E4EA" stroke-width="0.25" stroke-linecap="round" stroke-linejoin="round" d="
		M27.057,42.257c0,0-1.6-2.028-5.543-1.299"/>
	<path display="inline" fill="none" stroke="#D3E4EA" stroke-width="0.25" stroke-linecap="round" stroke-linejoin="round" d="
		M20.025,41.875c0,0-0.729,0.225-1.331,1.38"/>
	<path display="inline" fill="none" stroke="#040000" stroke-width="0.25" stroke-linecap="round" stroke-linejoin="round" d="
		M85.091,32.318"/>
	<path display="inline" fill="none" stroke="#231815" stroke-width="0.25" stroke-miterlimit="10" d="M62.521,10.791l1.599,22.354
		c0,0,5.465,1.936,9.834-0.021l1.942-22.275C75.897,10.847,68.083,12.465,62.521,10.791z"/>
	
		<path display="inline" opacity="0.55" fill="#B4DFEF" stroke="#040000" stroke-width="0.25" stroke-linecap="round" stroke-linejoin="round" enable-background="new    " d="
		M62.949,15.842c0,0,1.31-2.892,5.634-0.678c0,0,1.63,0.788,3.067-0.078c0,0,3.748-1.618,3.821,0l-1.518,18.03
		c0,0-4.217,1.995-9.836,0.021L62.949,15.842z"/>
	
		<polyline display="inline" opacity="0.8" fill="none" stroke="#040000" stroke-width="0.25" stroke-linecap="round" stroke-linejoin="round" enable-background="new    " points="
		66.824,33.146 74.568,4.576 82.448,6.665 	"/>
	
		<path display="inline" opacity="0.85" fill="#80C4DE" stroke="#040000" stroke-width="0.25" stroke-linecap="round" stroke-linejoin="round" enable-background="new    " d="
		M62.899,16.282c0,0,1.178,2.788,3.12,1.034c0,0,1.859-1.656,3.456-0.002c0,0,1.665,2.364,3.582-0.421c0,0,1.487-1.977,2.364-0.928
		l-1.468,17.184c0,0-3.666,1.938-9.834,0.021L62.899,16.282z"/>
	<path display="inline" fill="none" stroke="#040000" stroke-width="0.25" stroke-linecap="round" stroke-linejoin="round" d="
		M62.521,10.482c0,0,2.463-0.426,5.648-0.538c2.412-0.088,5.232,0.006,7.728,0.593"/>
	
		<path display="inline" opacity="0.55" fill="none" stroke="#030000" stroke-width="0.25" stroke-linecap="round" stroke-linejoin="round" enable-background="new    " d="
		M64.118,33.083c0,0,4.216-1.776,9.834,0.062"/>
	
		<text transform="matrix(1 0 0 1 80.0798 39.8477)" display="inline" fill="#512E2E" font-family="'HGMaruGothicMPRO'" font-size="37.3812">飲食</text>
</g>
<g display="none">
	<g id="レイヤー_2_2_" display="inline">
		<text transform="matrix(1 0 0 1 43.9583 40.5449)" fill="#D19595" font-family="'HGMaruGothicMPRO'" font-size="36.8477">その他</text>
	</g>
	<path display="inline" fill="#DD1D16" stroke="#231815" stroke-width="0.25" stroke-miterlimit="10" d="M-5.301,7.671
		c6.189-0.505,18.781-1.327,24.853,0c1.885,0.409,0,14.652,0,14.652s7.189-0.069,9.585,0c2.397,0.067,1.265,9.513,0,9.583
		c-11.075,0.604-33.294,1.139-44.364,0.479c-1.15-0.068-1.112-9.995,0-10.133c2.431-0.298,9.789-0.067,9.789-0.067
		S-6.978,7.806-5.301,7.671z"/>
	
		<ellipse display="inline" fill="#090808" stroke="#231815" stroke-width="0.25" stroke-miterlimit="10" cx="19.35" cy="34.954" rx="5.385" ry="5.657"/>
	
		<ellipse display="inline" fill="#090707" stroke="#231815" stroke-width="0.25" stroke-miterlimit="10" cx="-4.476" cy="34.954" rx="5.387" ry="5.657"/>
	<path display="inline" fill="#93D1D2" stroke="#231815" stroke-width="0.25" stroke-miterlimit="10" d="M4.503,15.169
		c0,5.265-1.771,5.257-3.958,5.257h-2.621c-2.184,0-3.957,0.458-3.957-5.257l0,0c0-2.902-0.599-4.874,3.957-5.257h2.621
		C4.777,9.912,4.503,12.267,4.503,15.169L4.503,15.169z"/>
	
		<ellipse display="inline" fill="#FFFFFF" stroke="#231815" stroke-width="0.25" stroke-miterlimit="10" cx="-4.478" cy="34.955" rx="3.378" ry="3.467"/>
	
		<ellipse display="inline" fill="#FFFFFF" stroke="#231815" stroke-width="0.25" stroke-miterlimit="10" cx="19.35" cy="34.955" rx="3.377" ry="3.467"/>
	<path display="inline" fill="#C4C3C3" stroke="#231815" stroke-width="0.25" stroke-miterlimit="10" d="M32.686,18.845
		l-2.437,2.792l1.116,2.389l2.461,0.667l2.405-2.756c0,0,1.354,2.116-1.005,4.82c-2.358,2.703-5.311,1.291-5.311,1.291
		L14.062,47.049c0,0-1.554,0.779-2.71-0.289c-1.159-1.064-0.498-2.662-0.498-2.662l16.527-18.205c0,0-1.688-2.518,0.782-5.356
		C30.638,17.705,32.686,18.845,32.686,18.845z"/>
	<polygon display="inline" fill="#C4C3C3" stroke="#231815" stroke-width="0.25" stroke-miterlimit="10" points="13.165,19.116 
		17.9,23.853 17.148,24.478 27.582,37.15 25.285,39.053 14.861,26.454 14.073,27.07 10.302,21.497 	"/>
	<path display="inline" fill="#4DAEC5" stroke="#231815" stroke-width="0.25" stroke-miterlimit="10" d="M21.769,36.824
		c0,0-1.014-1.234-0.146-1.953c0.87-0.721,2.598-2.15,2.598-2.15s0.864-0.639,1.885,0.594c1.023,1.238,9.085,10.982,9.085,10.982
		s1.011,1.266,0.196,1.941c-0.811,0.668-2.563,2.119-2.563,2.119s-0.977,0.646-1.93-0.502
		C29.938,46.699,21.769,36.824,21.769,36.824z"/>
</g>
<g display="none">
	
		<text transform="matrix(1 0 0 1 6.3914 40.2227)" display="inline" fill="#FFFFFF" font-family="'HGMaruGothicMPRO'" font-size="37.3255">食品関連</text>
	
		<polygon display="inline" fill="#B9B8B8" stroke="#040000" stroke-width="0.25" stroke-linecap="round" stroke-linejoin="round" points="
		-46.35,13.177 -46.378,17.807 -54.809,29.139 -56.344,26.206 	"/>
	
		<polygon display="inline" fill="#B7BABA" stroke="#040000" stroke-width="0.25" stroke-linecap="round" stroke-linejoin="round" points="
		-46.261,13.141 -46.261,17.409 -18.55,17.473 -18.227,13.141 	"/>
	
		<polygon display="inline" fill="#CDB6BE" stroke="#040000" stroke-width="0.25" stroke-linecap="round" stroke-linejoin="round" points="
		-46.378,16.94 -54.694,28.139 -27.749,28.204 -19.318,16.94 	"/>
	<path display="inline" fill="#F7E6E3" stroke="#040000" stroke-width="0.25" d="M-43.171,21.537c0,0-0.802,3.822,1.423,3.733
		c2.223-0.089,6.042-1.422,7.909-0.443c1.865,0.976,9.331-0.355,9.063-3.911l-2.312-0.712l-5.864-0.354c0,0-0.711-0.267-2.312-0.089
		c-1.599,0.178-3.465,0.533-3.465,0.533L-43.171,21.537z"/>
	<path display="inline" fill="#F7EFED" stroke="#040000" stroke-width="0.25" d="M-35.662,15.63c0,0-4.087-0.355-6.221,2.844
		c-2.133,3.198-1.155,6.042,2.667,4.978c3.82-1.068,6.396-0.089,6.396-0.089s2.666,1.154,4.621,0
		c1.806-1.068,5.155-0.534,2.577-4.798C-28.198,14.296-32.997,16.517-35.662,15.63z"/>
	<path display="inline" fill="#EF8774" stroke="#040000" stroke-width="0.25" stroke-linecap="round" stroke-linejoin="round" d="
		M-38.151,17.229c0,0-3.731,1.154-3.555,2.933c0,0-0.622,2.488,0.622,2.31c1.244-0.178,2.843-0.622,2.843-0.622
		s3.822-0.179,4.444,0.087c0.622,0.267,3.022,0.71,3.022,0.71s1.354-0.097,1.42-1.333c0.089-1.688-0.354-3.111-0.176-3.376
		c0.176-0.265-0.979-0.8-2.667-1.066l-3.466-0.089C-35.662,16.784-37.262,16.784-38.151,17.229z"/>
	<path display="inline" fill="#EF8774" stroke="#040000" stroke-width="0.25" stroke-linecap="round" stroke-linejoin="round" d="
		M-28.91,17.229c0,0,0.354,1.953,0.8,2.399c0.445,0.444,2.133,0.801,2.133,0.801C-25.958,20.555-25.854,18.387-28.91,17.229z"/>
	<path display="inline" fill="#EF8774" stroke="#040000" stroke-width="0.25" stroke-linecap="round" stroke-linejoin="round" d="
		M-28.421,20.65c0,0,1.688,0.622,2.045,0.622c0.355,0-0.443,1.245-1.512,1.066C-28.954,22.162-28.331,21.183-28.421,20.65z"/>
	<path display="inline" fill="#F7E6E3" stroke="#040000" stroke-width="0.25" d="M-50.814,26.07c0,0-0.8,3.821,1.423,3.731
		c2.221-0.089,6.042-1.421,7.909-0.443c1.865,0.979,9.331-0.354,9.063-3.908l-2.312-0.71l-5.866-0.355c0,0-0.711-0.268-2.312-0.089
		c-1.599,0.178-3.465,0.534-3.465,0.534L-50.814,26.07z"/>
	<path display="inline" fill="#F7EFED" stroke="#040000" stroke-width="0.25" d="M-43.659,20.116c0,0-4.088-0.354-6.221,2.845
		c-2.133,3.198-1.155,6.045,2.666,4.977c3.821-1.065,6.396-0.088,6.396-0.088s2.667,1.156,4.622,0
		c1.807-1.066,5.153-0.535,2.577-4.8C-36.196,18.784-40.996,21.004-43.659,20.116z"/>
	<path display="inline" fill="#EF8774" stroke="#040000" stroke-width="0.25" stroke-linecap="round" stroke-linejoin="round" d="
		M-46.149,21.716c0,0-3.729,1.154-3.555,2.931c0,0-0.623,2.49,0.622,2.311c1.245-0.178,2.846-0.623,2.846-0.623
		s3.818-0.178,4.443,0.088c0.622,0.269,3.021,0.711,3.021,0.711s1.355-0.097,1.423-1.333c0.09-1.688-0.354-3.11-0.178-3.376
		c0.178-0.265-0.978-0.801-2.667-1.066l-3.466-0.089C-43.659,21.271-45.259,21.271-46.149,21.716z"/>
	<path display="inline" fill="#EF8774" stroke="#040000" stroke-width="0.25" stroke-linecap="round" stroke-linejoin="round" d="
		M-36.906,21.716c0,0,0.354,1.953,0.799,2.398c0.442,0.444,2.133,0.801,2.133,0.801C-33.954,25.042-33.849,22.875-36.906,21.716z"/>
	<path display="inline" fill="#EF8774" stroke="#040000" stroke-width="0.25" stroke-linecap="round" stroke-linejoin="round" d="
		M-36.463,24.916c0,0,1.688,0.622,2.043,0.622s-0.445,1.244-1.513,1.065C-36.995,26.425-36.374,25.448-36.463,24.916z"/>
	
		<polygon display="inline" fill="#FFFFFF" stroke="#040000" stroke-width="0.25" stroke-linecap="round" stroke-linejoin="round" points="
		-18.177,13.243 -28.022,28.17 -28.012,30.902 -26.903,30.916 -18.177,17.531 	"/>
	
		<polygon display="inline" fill="#FFFFFF" stroke="#040000" stroke-width="0.25" stroke-linecap="round" stroke-linejoin="round" points="
		-26.924,31.029 -26.924,26.484 -56.344,26.404 -56.344,31.005 	"/>
	
		<polygon display="inline" fill="#B7BABA" stroke="#040000" stroke-width="0.25" stroke-linecap="round" stroke-linejoin="round" points="
		-27.363,25.173 -27.397,29.807 -36.927,41.135 -38.661,38.202 	"/>
	
		<polygon display="inline" fill="#BBBDBF" stroke="#040000" stroke-width="0.25" stroke-linecap="round" stroke-linejoin="round" points="
		-27.264,25.14 -27.264,29.405 4.06,29.47 4.428,25.14 	"/>
	
		<polygon display="inline" fill="#B7CAD2" stroke="#040000" stroke-width="0.25" stroke-linecap="round" stroke-linejoin="round" points="
		-27.397,28.939 -36.794,40.134 -6.336,40.199 3.194,28.939 	"/>
	
		<polygon display="inline" fill="#FFFFFF" stroke="#040000" stroke-width="0.25" stroke-linecap="round" stroke-linejoin="round" points="
		4.484,25.239 -6.646,40.166 -6.635,42.9 -5.38,42.912 4.484,29.525 	"/>
	<path display="inline" fill="#76ABC0" stroke="#040000" stroke-width="0.25" stroke-linecap="round" stroke-linejoin="round" d="
		M-10.552,31.438c0,0,5.917-3.313,4.732-0.267c0,0-0.769,2.001-1.231,2.647c-0.468,0.647-0.518,2.185-3.551-1.897L-10.552,31.438z"
		/>
	<path display="inline" fill="#9CD2EC" stroke="#040000" stroke-width="0.25" stroke-linecap="round" stroke-linejoin="round" d="
		M-25.709,30.916l-2.131,0.887c0,0,2.311,2.313,7.729,2.844c0,0,6.932,1.248,9.508-2.844c0,0-0.087-1.063-1.421-1.775
		c-1.333-0.709-7.02-4.267-14.931-0.086L-25.709,30.916z"/>
	<path display="inline" fill="#76ABC0" stroke="#040000" stroke-width="0.25" stroke-linecap="round" stroke-linejoin="round" d="
		M-18.42,30.361c0,0,3.818-2.226,2.865,0.308l-0.979,2.133c0,0-0.576,1.954-2.333-0.688"/>
	
		<circle display="inline" fill="#FFFFFF" stroke="#040000" stroke-width="0.25" stroke-linecap="round" stroke-linejoin="bevel" cx="-22.019" cy="28.383" r="1.731"/>
	<path display="inline" fill="#76ABC0" stroke="#040000" stroke-width="0.25" stroke-linecap="round" stroke-linejoin="round" d="
		M-11.399,36.813c0,0,4.891-3.813,4.072-1.264l-1.183,3.266c0,0-1.243,4.067-2.955-1.422l0.043-0.513"/>
	<path display="inline" fill="#9CD2EC" stroke="#040000" stroke-width="0.25" stroke-linecap="round" stroke-linejoin="round" d="
		M-28.552,34.913l1.688,1.153l-1.955,0.447c0,0,0.354,2.573,6.754,3.377c0,0,8.529,0.441,10.574-2.758
		C-11.49,37.135-13.002,28.782-28.552,34.913z"/>
	
		<circle display="inline" fill="#FFFFFF" stroke="#040000" stroke-width="0.25" stroke-linecap="round" stroke-linejoin="bevel" cx="-23.175" cy="33.445" r="1.731"/>
	
		<line display="inline" fill="none" stroke="#040000" stroke-width="0.25" stroke-linecap="round" stroke-linejoin="bevel" x1="-23.109" y1="27.251" x2="-21.043" y2="29.45"/>
	
		<line display="inline" fill="none" stroke="#040000" stroke-width="0.25" stroke-linecap="round" stroke-linejoin="bevel" x1="-20.776" y1="27.338" x2="-23.332" y2="29.316"/>
	
		<line display="inline" fill="none" stroke="#040000" stroke-width="0.25" stroke-linecap="round" stroke-linejoin="bevel" x1="-24.263" y1="32.236" x2="-22.098" y2="34.654"/>
	
		<line display="inline" fill="none" stroke="#040000" stroke-width="0.25" stroke-linecap="round" stroke-linejoin="bevel" x1="-21.88" y1="32.486" x2="-24.431" y2="34.402"/>
	<path display="inline" fill="#76ABC0" stroke="#040000" stroke-width="0.25" stroke-linecap="round" stroke-linejoin="round" d="
		M-20.153,35.691c0,0,3.378-2.002,2.71-0.243l-0.935,2.041c0,0-0.711,2.09-1.711-0.356"/>
	
		<polygon display="inline" fill="#FFFFFF" stroke="#040000" stroke-width="0.25" stroke-linecap="round" stroke-linejoin="round" points="
		-5.404,43.029 -5.404,38.48 -38.661,38.4 -38.661,43.001 	"/>
</g>
<g id="レイヤー_2">
	
		<ellipse transform="matrix(-0.9141 -0.4054 0.4054 -0.9141 95.2196 48.1424)" fill="#DE7CAE" stroke="#231815" stroke-width="0.25" stroke-miterlimit="10" cx="52.708" cy="13.988" rx="5.069" ry="4.562"/>
	<path fill="#59A23D" stroke="#231815" stroke-width="0.25" stroke-miterlimit="10" d="M40.677,28.62
		c1.021-2.302,3.924-3.249,6.481-2.115c2.562,1.141,3.807,3.924,2.785,6.227c-1.021,2.301-3.926,3.248-6.481,2.115
		C40.904,33.708,39.656,30.919,40.677,28.62z"/>
	
		<ellipse transform="matrix(-0.9142 -0.4054 0.4054 -0.9142 84.7599 62.6071)" fill="#F1F1E6" stroke="#231815" stroke-width="0.25" stroke-miterlimit="10" cx="49.009" cy="22.329" rx="5.069" ry="4.562"/>
	<line fill="none" stroke="#231815" stroke-width="0.25" stroke-miterlimit="10" x1="43.467" y1="34.843" x2="39.909" y2="42.867"/>
	<line fill="none" stroke="#231815" stroke-width="0.25" stroke-miterlimit="10" x1="54.563" y1="9.816" x2="55.783" y2="7.067"/>
	<path fill="#F7FBFD" stroke="#231815" stroke-width="0.25" stroke-miterlimit="10" d="M28.14,19.837L14.755,34.896l1.418,2.301
		l3.729-0.85l6.078-2.386c0,0,0.72,0.556,1.372,0c0.654-0.559,7.063-2.975,7.063-2.975l1.834-4.059
		C34.015,22.527,31.933,21.128,28.14,19.837z"/>
	<polygon fill="#F7FBFD" stroke="#231815" stroke-width="0.25" stroke-miterlimit="10" points="36.253,27.264 14.755,34.896 
		14.755,44.477 36.253,36.583 	"/>
	<path fill="#DF1814" stroke="#030000" stroke-width="0.25" stroke-miterlimit="10" d="M29.791,21.736c0,0-2.459,3.333-1.116,3.892
		h2.568C31.243,25.628,32.695,24.872,29.791,21.736z"/>
	<polygon fill="#ED7E7F" stroke="#231815" stroke-width="0.25" stroke-miterlimit="10" points="14.755,38.113 36.253,30.792 
		36.253,33.21 14.755,40.734 	"/>
	<text transform="matrix(1 0 0 1 60.8035 38.4287)" fill="#FCFCFC" font-family="'HGMaruGothicMPRO'" font-size="36.6431">和洋菓子</text>
</g>
</svg>
