<?xml version="1.0" encoding="utf-8"?>
<!-- Generator: Adobe Illustrator 16.0.0, SVG Export Plug-In . SVG Version: 6.00 Build 0)  -->
<!DOCTYPE svg PUBLIC "-//W3C//DTD SVG 1.1//EN" "http://www.w3.org/Graphics/SVG/1.1/DTD/svg11.dtd">
<svg version="1.1" id="レイヤー_1" xmlns="http://www.w3.org/2000/svg" xmlns:xlink="http://www.w3.org/1999/xlink" x="0px"
	 y="0px" width="161.445px" height="51.832px" viewBox="0 0 161.445 51.832" enable-background="new 0 0 161.445 51.832"
	 xml:space="preserve">
<g id="レイヤー_1_1_" display="none">
	<path display="inline" fill="#F7F9F9" d="M7.669,19.107L6.925,19.66c-0.528-1.104-1.417-2.832-2.304-4.369
		c-0.48,2.666-1.584,5.064-3.697,7.082l-0.648-0.625c2.952-2.783,3.816-6.358,3.816-10.439V0.627h0.864v10.682
		c0,0.959-0.049,1.895-0.146,2.785C5.869,15.797,7.021,17.885,7.669,19.107z M2.533,5.211c-0.22,2.305-0.648,4.896-1.368,6.336
		l-0.771-0.239c0.792-1.465,1.248-3.984,1.396-6.192L2.533,5.211z M8.196,4.515c-0.504,1.56-1.316,3.792-2.184,5.736l-0.6-0.288
		c0.86-1.968,1.632-4.225,2.04-5.736L8.196,4.515z M10.141,16.947c-0.432,1.992-1.368,4.152-2.592,5.377l-0.771-0.431
		c1.272-1.201,2.188-3.265,2.568-5.16L10.141,16.947z M8.965,8.14c-0.168,0.312-0.384,0.6-0.576,0.863l-0.72-0.432
		c1.752-2.329,2.809-4.945,3.356-7.921l0.816,0.096c-0.144,0.792-0.336,1.536-0.552,2.28h2.854h0.146h0.12l0.572,0.096
		c-0.692,5.544-2.948,9.603-6.479,11.93L7.88,14.427c1.656-1.03,3-2.446,4.056-4.2C11.148,9.532,10.166,8.835,8.965,8.14z
		 M12.276,9.604c0.36-0.672,0.675-1.393,0.912-2.16c-0.744-0.624-1.704-1.2-2.88-1.776c-0.288,0.648-0.624,1.296-0.98,1.92
		C10.501,8.26,11.484,8.932,12.276,9.604z M13.43,6.724c0.264-0.912,0.48-1.896,0.648-2.93h-3.024
		c-0.144,0.433-0.312,0.864-0.479,1.272C11.702,5.619,12.662,6.171,13.43,6.724z M12.781,17.02c0.528,1.752,0.816,3.313,0.892,4.655
		l-0.892,0.168c-0.021-1.344-0.264-2.903-0.768-4.584L12.781,17.02z M22.502,14.5l-0.648,0.722C20.2,13.951,19,11.597,18.302,7.733
		c-0.576,3.24-1.752,5.665-4.321,7.344l-0.646-0.625c2.809-1.799,3.913-4.487,4.345-8.255h-2.641V5.38h2.732
		c0.12-1.439,0.192-3.023,0.216-4.752l0.844,0.024c-0.024,1.704-0.1,3.288-0.22,4.729h3.528v0.816h-3.265
		C19.454,10.612,20.702,13.252,22.502,14.5z M16.142,16.973c0.816,1.729,1.32,3.264,1.563,4.606l-0.816,0.24
		c-0.216-1.344-0.696-2.904-1.438-4.584L16.142,16.973z M19.478,16.42c1.368,2.017,2.328,3.937,2.904,5.593l-0.84,0.313
		c-0.528-1.681-1.464-3.576-2.784-5.568L19.478,16.42z M20.222,0.987c0.912,1.032,1.563,2.016,1.944,2.952l-0.672,0.288
		c-0.388-0.912-0.984-1.872-1.824-2.904L20.222,0.987z"/>
	<path display="inline" fill="#F7F9F9" d="M31.068,8.668c-0.72-2.16-1.464-4.151-2.229-5.809l0.96-0.408
		c0.768,1.729,1.512,3.744,2.208,5.88c2.396-0.792,4.772-1.536,6.576-1.896c-0.648-1.44-1.972-3.577-2.932-4.705l0.844-0.456
		c1.028,1.224,2.396,3.6,3.048,4.993c0.384-0.049,0.72-0.072,1.028-0.072c3.648,0,5.521,1.584,5.521,4.92
		c0,2.736-1.848,4.561-5.208,4.561c-0.96,0-2.184-0.145-3.384-0.504l0.068-0.938c1.2,0.385,2.354,0.529,3.268,0.529
		c2.784,0,4.296-1.439,4.296-3.675c0-2.712-1.488-3.96-4.656-3.96c-1.656,0-4.873,0.937-8.185,2.088
		c1.368,4.178,2.544,8.689,3.216,12.313L34.5,21.748c-0.624-3.576-1.8-8.088-3.12-12.217c-1.944,0.696-3.89,1.416-5.544,2.04
		l-0.336-0.96C27.156,10.036,29.125,9.34,31.068,8.668z"/>
	<path display="inline" fill="#F7F9F9" d="M51.3,6.339c0.793,0.024,1.633,0.049,2.568,0.049c2.521,0,5.424-0.097,8.207-0.313
		c-0.525-1.536-0.938-3.144-1.15-4.656l1.009-0.12c0.19,1.513,0.575,3.121,1.129,4.705c2.545-0.191,4.944-0.479,6.744-0.863
		l0.19,0.911c-1.804,0.36-4.129,0.624-6.625,0.841c1.08,2.88,2.612,5.543,4.346,7.201l-0.743,0.841
		c-2.904-1.177-5.688-1.824-8.543-1.824c-3.072,0-4.777,1.416-4.777,3.527c0,2.809,2.856,4.129,8.499,4.129
		c0.964,0,2.021-0.048,3.146-0.119l-0.021,0.938c-1.076,0.099-2.137,0.119-3.068,0.119c-6.359,0-9.527-1.752-9.527-5.137
		c0-2.615,2.279-4.32,5.617-4.32c2.76,0,5.396,0.553,7.871,1.439c-1.367-1.439-2.766-3.958-3.771-6.723
		c-2.928,0.217-6,0.313-8.71,0.313c-0.813,0-1.632,0-2.376-0.024V6.339H51.3z"/>
	<path display="inline" fill="#F7F9F9" d="M80.244,5.019c0.385-1.416,0.672-2.736,0.86-3.84l1.013,0.119
		c-0.191,1.08-0.479,2.354-0.863,3.721h4.703v0.912h-4.972c-1.147,3.912-2.93,8.377-4.87,11.184l-0.892-0.525
		c1.92-2.664,3.625-6.89,4.729-10.657h-4.199V5.02L80.244,5.019L80.244,5.019z M90.063,8.5c-0.021,0.504-0.021,1.368-0.021,2.328
		c0,1.584,0,3.576,0.021,5.064c1.655,0.672,3.289,1.653,4.584,2.688l-0.623,0.721c-1.148-0.983-2.545-1.85-3.961-2.473v0.937
		c0,2.495-1.316,3.864-4.176,3.864c-2.714,0-4.537-1.537-4.537-3.289c0-2.016,1.729-3.336,4.537-3.336
		c1.03,0,2.135,0.191,3.215,0.554c0-1.439,0-3.24,0-4.729c0-0.96,0-1.824,0-2.328L90.063,8.5L90.063,8.5z M85.887,15.844
		c-2.308,0-3.675,0.962-3.675,2.496c0,1.32,1.634,2.425,3.603,2.425c2.278,0,3.313-0.98,3.313-3c0-0.313,0-0.769,0-1.32
		C88.021,16.061,86.916,15.844,85.887,15.844z M94.621,8.14c-1.367-1.009-4.104-2.568-5.979-3.313l0.479-0.792
		c1.99,0.864,4.515,2.28,6,3.313L94.621,8.14z"/>
	<path display="inline" fill="#F7F9F9" d="M101.916,4.347c-0.146,1.848-0.217,3.695-0.217,5.208c0,5.952,2.325,9.913,4.178,9.913
		c1.226,0,2.209-1.991,2.931-4.752l0.862,0.359c-0.938,3.336-2.063,5.447-3.744,5.447c-2.399,0-5.209-4.344-5.209-10.92
		c0-1.561,0.05-3.433,0.168-5.328L101.916,4.347z M114.949,3.939c3.385,3.265,4.633,7.152,4.772,12.385l-1.059,0.098
		c-0.068-5.064-1.316-8.905-4.518-11.882L114.949,3.939z"/>
</g>
<g>
	<polygon fill="#3F3734" stroke="#040000" stroke-width="0.25" points="37.426,22.641 35.273,26.793 40.175,26.143 41.305,23.988 	
		"/>
	<polygon fill="#3F3734" stroke="#040000" stroke-width="0.25" points="35.334,27.089 42.179,26.201 48.193,31.877 41.026,32.66 	
		"/>
	<polygon fill="#9CD2EC" stroke="#040000" stroke-width="0.25" stroke-linecap="round" stroke-linejoin="bevel" points="
		37.024,19.739 38.916,30.454 45.914,29.598 44.32,18.735 	"/>
	<polyline fill="none" stroke="#D8EAEE" stroke-width="0.25" stroke-linecap="round" stroke-linejoin="round" points="40.97,21.25 
		42.932,21.025 41.28,22.033 43.703,21.683 42.664,22.223 	"/>
	<path fill="#614920" stroke="#040000" stroke-width="0.25" stroke-linecap="round" stroke-linejoin="round" d="M29.465,20.096
		c0,0-1.804,1.029-1.586,2.484l1.14,1.188c0,0,1.938,0.809,2.906-1.536l-1.247-0.912l-0.409-0.287L29.465,20.096z"/>
	<path fill="#2F210D" stroke="#040000" stroke-width="0.25" stroke-linecap="round" stroke-linejoin="round" d="M30.09,20.309
		c0,0-0.852-0.782-0.698,0.327c0,0,0.122,1.118,1.266,1.663c0,0,2.223,0.414,0.858-0.872L30.09,20.309z"/>
	<path fill="#614920" stroke="#040000" stroke-width="0.25" stroke-linecap="round" stroke-linejoin="round" d="M27.691,23.029
		c0,0-3.404,0.321-4.515,1.035c-1.107,0.714-2.036,2.352-4.548,4.312c-2.51,1.957-3.281,1.618-4.066,1.614
		c-0.784-0.004,1.271,0.455,1.271,0.455l-1.715,0.396c0,0,3.745,0.427,4.575-0.198c0,0-1.952,0.912-5.416,0.767
		c0,0,0.307,0.481,1.627,0.675l-0.781,0.559l0.902,0.181c0,0-0.73,0.569-0.955,0.476c0,0,1.348,0.2,1.729-0.054
		c0,0-0.578,0.729-0.852,0.705c0,0,2.196,1.315,5.027-0.492c0,0-1.241,0.979-2.073,1.132c0,0,5.627,0.245,8.814-4.88
		c0,0,1.546-2.216,1.914-5.475L27.691,23.029z"/>
	<path fill="#BA901A" stroke="#040000" stroke-width="0.25" stroke-linecap="round" stroke-linejoin="round" d="M30.049,21.782
		l-0.491-0.72L42.44,8.429c0,0,1.31-1.594,2.178-0.961c0.867,0.633-0.773,1.921-0.773,1.921L30.788,22.323L30.049,21.782z"/>
	
		<circle fill="none" stroke="#040000" stroke-width="0.25" stroke-linecap="round" stroke-linejoin="round" cx="43.85" cy="8.31" r="0.255"/>
	<path fill="none" stroke="#040000" stroke-width="0.25" stroke-linecap="round" stroke-linejoin="round" d="M43.829,8.291
		c0,0-0.024-1.116,1.533-2.555c0,0,1.699-1.342,1.137,0.574c0,0-0.31,0.959-1.529,1.391"/>
	<path fill="#A23924" stroke="#040000" stroke-width="0.25" stroke-linecap="round" stroke-linejoin="round" d="M29.163,23.475
		l-0.926-0.973c0,0-0.27-0.32-0.751,0.13c0,0-0.437,0.237,0.141,0.953l0.514,0.602c0,0,0.303,0.498,0.795,0.064
		C28.934,24.25,29.517,23.985,29.163,23.475z"/>
	<path fill="none" stroke="#040000" stroke-width="0.25" stroke-linecap="round" stroke-linejoin="round" d="M26.671,26.324
		c0,0-2.179,1.496-3.597,3.464c-1.421,1.972-5.68,2.997-6.228,2.666"/>
	<path fill="none" stroke="#040000" stroke-width="0.25" stroke-linecap="round" stroke-linejoin="round" d="M24.767,25.344
		c0,0-1.854,0.776-2.796,2.27c0,0-1.252,1.681-2.047,1.814"/>
	<path fill="#8B8787" d="M27.03,41.691c0,0-0.916,0.972,1.563,1.457c2.478,0.484,4.201-0.109,4.201-0.109s1.401-0.268,1.509-0.915
		c0.086-0.526-1.455-1.506-1.455-1.506s-1.56,0.159-1.938,0.271c-0.377,0.106-0.755,0.16-1.292,0.266
		c-0.541,0.109-0.702,0.218-1.241,0.326c-0.537,0.106-1.456,0.106-1.456,0.106"/>
	<path fill="#C7E4D6" stroke="#040000" stroke-width="0.25" stroke-linecap="round" stroke-linejoin="round" d="M34.233,37.843
		c0,0,1.072-1.477,2.77-0.97c1.697,0.501,1.537,2.867,1.537,2.867s-0.265,1.979-2.587,1.881c-2.323-0.102-2.728-0.869-2.728-0.869
		l0.483-1.111l0.345-0.162c0,0,0.989,1.029,1.819,0.971c0.829-0.061,1.841-0.646,1.313-1.719c-0.525-1.07-1.536-1.232-2.604-0.301
		C33.506,39.354,34.233,37.843,34.233,37.843z"/>
	<path fill="#C7E4D6" stroke="#040000" stroke-width="0.25" stroke-linecap="round" stroke-linejoin="round" d="M26.112,35.296
		c0,0,0,3.92,0.646,5.943c0,0,0.162,0.889,1.376,1.212c1.211,0.322,3.778,0.242,4.343,0.141c0,0,0.989,0,1.417-1.333
		c0.422-1.336,1.716-4,1.373-5.272l-3.09-0.486l-1.961-0.08c0,0-1.03-0.061-1.392-0.039c-0.365,0.018-0.75-0.023-0.91,0
		C27.748,35.396,26.112,35.296,26.112,35.296z"/>
	<path fill="#BAC1BF" stroke="#040000" stroke-width="0.25" stroke-linecap="round" stroke-linejoin="round" d="M26.515,35.618
		c0,0-1.656-0.687,1.658-1.132c3.312-0.444,5.938,0.481,5.938,0.481s2.062,0.972,0.688,1.214
		C33.426,36.427,27.647,36.71,26.515,35.618z"/>
	<path fill="#7F4121" stroke="#040000" stroke-width="0.25" stroke-linecap="round" stroke-linejoin="round" d="M59.083,29.174
		c0,0-1.307-0.133-2.253,1.58c-0.944,1.712-1.484,1.441-2.836,2.023c-1.354,0.588-3.966,1.265-3.425,3.334
		c0.541,2.072,3.785,1.438,3.785,1.438l3.11-1.258l2.432-2.163L59.083,29.174z"/>
	<path fill="#7F4121" stroke="#040000" stroke-width="0.25" stroke-linecap="round" stroke-linejoin="round" d="M68.633,29.148
		c0,0,2.524,0.275,3.333,2.845c0.813,2.563,2.256,4.101,3.155,4.276c0.898,0.183,2.925,1.849,0.315,3.152
		c-2.617,1.311-3.02,0.178-3.02,0.178l-2.883-3.308l-3.197-1.306L68.633,29.148z"/>
	<path fill="#7F4121" stroke="#040000" stroke-width="0.25" stroke-linecap="round" stroke-linejoin="round" d="M59.038,28.95
		l9.73,0.182c2.749,7.836-1.125,13.198-1.125,13.198c-6.44,4.368-9.278-2.341-9.278-2.341c-1.265-1.714,0.674-10.904,0.674-10.904"
		/>
	<path fill="#7F4121" stroke="#040000" stroke-width="0.25" stroke-linecap="round" stroke-linejoin="round" d="M59.917,41.701
		c0,0,1.035-2.659-1.443-2.613c-2.478,0.042-1.168-3.382-3.333-3.158c-2.163,0.229-1.26,1.268-1.26,1.268v2.252v1.626l-0.359,0.85
		l0.137,1.847C53.656,43.771,58.342,46.114,59.917,41.701z"/>
	<path fill="#F4E893" stroke="#040000" stroke-width="0.25" stroke-linecap="round" stroke-linejoin="round" d="M55.682,38.375
		c0,0,0-3.873-2.224-1.609c-2.224,2.266-1.697,4.525-1.697,4.525s1.087,3.133,2.308,2.259
		C55.291,42.684,55.857,39.333,55.682,38.375z"/>
	<path fill="#7F4121" stroke="#040000" stroke-width="0.25" stroke-linecap="round" stroke-linejoin="round" d="M66.584,40.775
		c0,0,0.093-1.894,2.346-1.397c2.25,0.495,1.169-1.937,3.559-2.563c2.388-0.637,0.988,3.377,0.988,3.377l-0.226,2.435l-0.176,1.491
		c0,0-0.948,1.164-3.246,0.267c-2.295-0.901-3.245-2.343-3.245-3.514"/>
	<path fill="#F4E893" stroke="#040000" stroke-width="0.25" stroke-linecap="round" stroke-linejoin="round" d="M71.379,38.807
		c0,0,1.174-3.084,2.317-1.434c0,0,1.64,3.109,0.215,5.657c-1.427,2.55-2.823-0.505-2.888-0.669
		C70.957,42.191,70.964,39.766,71.379,38.807z"/>
	<polygon fill="#E54D4C" stroke="#040000" stroke-width="0.25" stroke-linecap="round" stroke-linejoin="round" points="
		59.083,28.549 63.162,33.387 68.907,28.73 	"/>
	<path fill="#7F4121" stroke="#040000" stroke-width="0.25" stroke-linecap="round" stroke-linejoin="round" d="M54.912,20.751
		c0,0-1.151-1.282-0.507-3.851c0.642-2.567,4.088-1.895,5.339,0c1.249,1.89,0.573,1.456,0.573,1.456s-0.979,1.96-0.979,1.861
		C59.339,20.11,54.912,20.751,54.912,20.751z"/>
	<path fill="#F2E99B" stroke="#040000" stroke-width="0.25" stroke-linecap="round" stroke-linejoin="round" d="M58.325,22.072
		c0,0-3.614-0.171-3.718-2.199c-0.101-2.025,2.873-2.396,4.696-0.607c1.827,1.79,1.083,2.163,1.083,2.163L58.29,22.17"/>
	<path fill="#7F4121" stroke="#040000" stroke-width="0.25" stroke-linecap="round" stroke-linejoin="round" d="M74.021,17.997
		c0,0-1.732-4.167-4.774-2.344c-3.04,1.827-2.094,2.907-2.094,2.907l0.627,1.08l0.359,0.794l1.668,0.33L74.021,17.997z"/>
	<path fill="#F2E99B" stroke="#040000" stroke-width="0.25" stroke-linecap="round" stroke-linejoin="round" d="M68.883,20.456
		c0,0,2.67-3.417,4.831-2.838c0,0,0.17,0.116,0.304,0.359c0.107,0.182,0.192,0.436,0.168,0.757c-0.024,0.302-0.137,0.68-0.437,1.111
		c0,0-2.333,2.539-4.965,1.688L68.883,20.456z"/>
	<path fill="#7F4121" stroke="#040000" stroke-width="0.25" d="M63.204,15.753c0,0-3.781-0.36-4.502,4.951
		c0,0-0.631,2.976-1.712,4.325c0,0-1.896,2.887,1.98,3.79c0,0,5.675,1.44,9.82,0c0,0,3.604-1.264,2.072-5.046
		c0,0-1.723-3.021-1.992-4.98C68.601,16.833,66.258,15.45,63.204,15.753z"/>
	
		<line fill="none" stroke="#040000" stroke-width="0.25" stroke-linecap="round" stroke-linejoin="round" x1="60.118" y1="17.353" x2="60.524" y2="18.096"/>
	
		<line fill="none" stroke="#040000" stroke-width="0.25" stroke-linecap="round" stroke-linejoin="round" x1="60.751" y1="18.545" x2="61.065" y2="19.222"/>
	
		<line fill="none" stroke="#040000" stroke-width="0.25" stroke-linecap="round" stroke-linejoin="round" x1="61.337" y1="19.807" x2="61.65" y2="20.549"/>
	
		<line fill="none" stroke="#040000" stroke-width="0.25" stroke-linecap="round" stroke-linejoin="round" x1="61.878" y1="21.112" x2="62.192" y2="21.79"/>
	
		<line fill="none" stroke="#040000" stroke-width="0.25" stroke-linecap="round" stroke-linejoin="round" x1="62.397" y1="22.326" x2="62.755" y2="23.231"/>
	
		<line fill="none" stroke="#040000" stroke-width="0.25" stroke-linecap="round" stroke-linejoin="round" x1="64.806" y1="23.161" x2="65.287" y2="22.374"/>
	
		<line fill="none" stroke="#040000" stroke-width="0.25" stroke-linecap="round" stroke-linejoin="round" x1="65.592" y1="21.855" x2="66.013" y2="20.959"/>
	
		<line fill="none" stroke="#040000" stroke-width="0.25" stroke-linecap="round" stroke-linejoin="round" x1="66.238" y1="20.403" x2="66.538" y2="19.669"/>
	
		<line fill="none" stroke="#040000" stroke-width="0.25" stroke-linecap="round" stroke-linejoin="round" x1="66.715" y1="19.129" x2="66.963" y2="18.41"/>
	
		<line fill="none" stroke="#040000" stroke-width="0.25" stroke-linecap="round" stroke-linejoin="round" x1="67.103" y1="17.89" x2="67.418" y2="16.876"/>
	
		<circle fill="#040000" stroke="#040000" stroke-width="0.25" stroke-linecap="round" stroke-linejoin="round" cx="59.48" cy="24.231" r="1.249"/>
	
		<circle fill="#040000" stroke="#040000" stroke-width="0.25" stroke-linecap="round" stroke-linejoin="round" cx="68.534" cy="24.302" r="1.252"/>
	
		<ellipse fill="#F4E893" stroke="#040000" stroke-width="0.25" stroke-linecap="round" stroke-linejoin="round" cx="64.118" cy="26.203" rx="3.208" ry="3.108"/>
	
		<ellipse fill="#F7AB61" stroke="#040000" stroke-width="0.25" stroke-linecap="round" stroke-linejoin="round" cx="63.995" cy="24.798" rx="1.334" ry="0.859"/>
	<path fill="none" stroke="#040000" stroke-width="0.25" stroke-linecap="round" stroke-linejoin="round" d="M61.588,25.947
		c0,0,0.143,1.419,0.987,1.369c0.845-0.053,1.349-1.635,1.349-1.635"/>
	<path fill="none" stroke="#040000" stroke-width="0.25" stroke-linecap="round" stroke-linejoin="round" d="M66.5,25.943
		c0,0-0.138,1.423-0.988,1.37c-0.844-0.047-1.347-1.626-1.347-1.626"/>
	<text transform="matrix(1 0 0 1 81.2913 40.583)" fill="#FFFFFF" font-family="'HGMaruGothicMPRO'" font-size="37.1051">雑貨</text>
</g>
</svg>
