<?xml version="1.0" encoding="utf-8"?>
<!-- Generator: Adobe Illustrator 16.0.0, SVG Export Plug-In . SVG Version: 6.00 Build 0)  -->
<!DOCTYPE svg PUBLIC "-//W3C//DTD SVG 1.1//EN" "http://www.w3.org/Graphics/SVG/1.1/DTD/svg11.dtd">
<svg version="1.1" id="レイヤー_2" xmlns="http://www.w3.org/2000/svg" xmlns:xlink="http://www.w3.org/1999/xlink" x="0px"
	 y="0px" width="120px" height="23px" viewBox="0 0 120 23" enable-background="new 0 0 120 23" xml:space="preserve">
<polygon fill="#3F3734" stroke="#040000" stroke-width="0.25" points="35.292,10.086 34.247,12.099 36.625,11.784 37.174,10.739 "/>
<polygon fill="#3F3734" stroke="#040000" stroke-width="0.25" points="34.277,12.243 37.598,11.812 40.515,14.567 37.038,14.946 "/>
<polygon fill="#9CD2EC" stroke="#040000" stroke-width="0.25" stroke-linecap="round" stroke-linejoin="bevel" points="
	35.096,8.678 36.015,13.876 39.409,13.46 38.636,8.191 "/>
<polyline fill="none" stroke="#D8EAEE" stroke-width="0.25" stroke-linecap="round" stroke-linejoin="round" points="37.011,9.411 
	37.963,9.302 37.161,9.791 38.337,9.621 37.833,9.883 "/>
<path fill="#614920" stroke="#040000" stroke-width="0.25" stroke-linecap="round" stroke-linejoin="round" d="M31.429,8.851
	c0,0-0.875,0.499-0.769,1.205l0.553,0.577c0,0,0.94,0.392,1.41-0.745l-0.605-0.442l-0.198-0.14L31.429,8.851z"/>
<path fill="#2F210D" stroke="#040000" stroke-width="0.25" stroke-linecap="round" stroke-linejoin="round" d="M31.733,8.954
	c0,0-0.413-0.379-0.339,0.159c0,0,0.059,0.542,0.614,0.807c0,0,1.078,0.2,0.417-0.423L31.733,8.954z"/>
<path fill="#614920" stroke="#040000" stroke-width="0.25" stroke-linecap="round" stroke-linejoin="round" d="M30.569,10.274
	c0,0-1.652,0.155-2.19,0.502c-0.537,0.346-0.988,1.141-2.206,2.091s-1.592,0.786-1.973,0.783c-0.38-0.002,0.617,0.221,0.617,0.221
	l-0.832,0.192c0,0,1.817,0.207,2.22-0.097c0,0-0.947,0.443-2.628,0.372c0,0,0.149,0.234,0.79,0.327l-0.379,0.271l0.438,0.087
	c0,0-0.354,0.278-0.463,0.232c0,0,0.653,0.096,0.839-0.027c0,0-0.281,0.354-0.414,0.342c0,0,1.066,0.64,2.439-0.238
	c0,0-0.602,0.477-1.005,0.55c0,0,2.73,0.118,4.276-2.369c0,0,0.75-1.073,0.928-2.655L30.569,10.274z"/>
<path fill="#BA901A" stroke="#040000" stroke-width="0.25" stroke-linecap="round" stroke-linejoin="round" d="M31.713,9.669
	l-0.238-0.349l6.249-6.128c0,0,0.635-0.773,1.056-0.467c0.421,0.307-0.375,0.932-0.375,0.932l-6.333,6.274L31.713,9.669z"/>
<circle fill="none" stroke="#040000" stroke-width="0.25" stroke-linecap="round" stroke-linejoin="round" cx="38.408" cy="3.134" r="0.124"/>
<path fill="none" stroke="#040000" stroke-width="0.25" stroke-linecap="round" stroke-linejoin="round" d="M38.398,3.124
	c0,0-0.012-0.541,0.744-1.239c0,0,0.824-0.651,0.551,0.278c0,0-0.15,0.466-0.742,0.675"/>
<path fill="#A23924" stroke="#040000" stroke-width="0.25" stroke-linecap="round" stroke-linejoin="round" d="M31.283,10.49
	l-0.448-0.472c0,0-0.131-0.155-0.365,0.063c0,0-0.211,0.115,0.068,0.462l0.249,0.292c0,0,0.147,0.241,0.386,0.031
	C31.172,10.866,31.455,10.738,31.283,10.49z"/>
<path fill="none" stroke="#040000" stroke-width="0.25" stroke-linecap="round" stroke-linejoin="round" d="M30.074,11.872
	c0,0-1.057,0.725-1.745,1.681c-0.689,0.956-2.755,1.454-3.021,1.293"/>
<path fill="none" stroke="#040000" stroke-width="0.25" stroke-linecap="round" stroke-linejoin="round" d="M29.151,11.397
	c0,0-0.9,0.376-1.357,1.1c0,0-0.607,0.816-0.993,0.881"/>
<path fill="#8B8787" d="M30.248,19.328c0,0-0.444,0.471,0.758,0.706c1.202,0.235,2.038-0.053,2.038-0.053s0.68-0.13,0.732-0.444
	c0.042-0.256-0.706-0.731-0.706-0.731s-0.757,0.078-0.94,0.132c-0.183,0.051-0.366,0.077-0.627,0.129
	c-0.262,0.053-0.34,0.105-0.602,0.157c-0.261,0.053-0.706,0.053-0.706,0.053"/>
<path fill="#C7E4D6" stroke="#040000" stroke-width="0.25" stroke-linecap="round" stroke-linejoin="round" d="M33.743,17.46
	c0,0,0.52-0.716,1.343-0.471c0.823,0.244,0.745,1.392,0.745,1.392s-0.128,0.96-1.255,0.912c-1.127-0.05-1.323-0.422-1.323-0.422
	l0.235-0.539l0.167-0.079c0,0,0.48,0.5,0.882,0.471c0.402-0.029,0.893-0.313,0.637-0.833c-0.255-0.52-0.745-0.598-1.264-0.147
	C33.39,18.194,33.743,17.46,33.743,17.46z"/>
<path fill="#C7E4D6" stroke="#040000" stroke-width="0.25" stroke-linecap="round" stroke-linejoin="round" d="M29.803,16.225
	c0,0,0,1.901,0.313,2.882c0,0,0.079,0.431,0.667,0.588c0.588,0.157,1.833,0.117,2.107,0.068c0,0,0.48,0,0.687-0.646
	c0.205-0.647,0.833-1.94,0.666-2.558l-1.499-0.236l-0.951-0.039c0,0-0.5-0.029-0.676-0.019c-0.177,0.009-0.363-0.011-0.441,0
	C30.597,16.273,29.803,16.225,29.803,16.225z"/>
<path fill="#BAC1BF" stroke="#040000" stroke-width="0.25" stroke-linecap="round" stroke-linejoin="round" d="M29.999,16.381
	c0,0-0.803-0.333,0.804-0.549c1.607-0.216,2.881,0.235,2.881,0.235s1,0.471,0.333,0.588C33.351,16.773,30.548,16.911,29.999,16.381z
	"/>
<path fill="#7F4121" stroke="#040000" stroke-width="0.25" stroke-linecap="round" stroke-linejoin="round" d="M45.798,13.255
	c0,0-0.634-0.065-1.093,0.767c-0.458,0.829-0.72,0.699-1.376,0.981c-0.656,0.285-1.923,0.613-1.661,1.617
	c0.262,1.006,1.836,0.699,1.836,0.699l1.508-0.61l1.18-1.05L45.798,13.255z"/>
<path fill="#7F4121" stroke="#040000" stroke-width="0.25" stroke-linecap="round" stroke-linejoin="round" d="M50.431,13.243
	c0,0,1.224,0.133,1.617,1.379c0.394,1.244,1.093,1.989,1.53,2.075c0.437,0.088,1.419,0.897,0.153,1.529
	c-1.269,0.636-1.465,0.087-1.465,0.087l-1.398-1.604l-1.55-0.634L50.431,13.243z"/>
<path fill="#7F4121" stroke="#040000" stroke-width="0.25" stroke-linecap="round" stroke-linejoin="round" d="M45.776,13.147
	l4.721,0.088c1.333,3.801-0.546,6.402-0.546,6.402c-3.125,2.119-4.501-1.136-4.501-1.136c-0.613-0.831,0.327-5.29,0.327-5.29"/>
<path fill="#7F4121" stroke="#040000" stroke-width="0.25" stroke-linecap="round" stroke-linejoin="round" d="M46.202,19.332
	c0,0,0.502-1.29-0.7-1.268c-1.202,0.021-0.567-1.64-1.617-1.532c-1.049,0.11-0.611,0.615-0.611,0.615v1.092v0.788l-0.175,0.412
	l0.066,0.897C43.165,20.337,45.438,21.472,46.202,19.332z"/>
<path fill="#F4E893" stroke="#040000" stroke-width="0.25" stroke-linecap="round" stroke-linejoin="round" d="M44.148,17.719
	c0,0,0-1.88-1.079-0.782c-1.079,1.099-0.824,2.196-0.824,2.196s0.528,1.519,1.12,1.096C43.958,19.809,44.233,18.183,44.148,17.719z"
	/>
<path fill="#7F4121" stroke="#040000" stroke-width="0.25" stroke-linecap="round" stroke-linejoin="round" d="M49.436,18.883
	c0,0,0.045-0.918,1.138-0.678c1.092,0.241,0.568-0.939,1.727-1.244c1.158-0.308,0.48,1.638,0.48,1.638l-0.11,1.181l-0.086,0.723
	c0,0-0.46,0.565-1.574,0.13c-1.114-0.438-1.575-1.137-1.575-1.705"/>
<path fill="#F4E893" stroke="#040000" stroke-width="0.25" stroke-linecap="round" stroke-linejoin="round" d="M51.762,17.928
	c0,0,0.57-1.497,1.125-0.696c0,0,0.795,1.509,0.104,2.745c-0.691,1.237-1.369-0.244-1.4-0.325
	C51.557,19.571,51.562,18.392,51.762,17.928z"/>
<polygon fill="#E54D4C" stroke="#040000" stroke-width="0.25" stroke-linecap="round" stroke-linejoin="round" points="
	45.798,12.952 47.776,15.299 50.563,13.039 "/>
<path fill="#7F4121" stroke="#040000" stroke-width="0.25" stroke-linecap="round" stroke-linejoin="round" d="M43.774,9.169
	c0,0-0.558-0.622-0.245-1.868c0.311-1.246,1.982-0.919,2.589,0c0.606,0.917,0.279,0.706,0.279,0.706s-0.475,0.951-0.475,0.902
	C45.922,8.858,43.774,9.169,43.774,9.169z"/>
<path fill="#F2E99B" stroke="#040000" stroke-width="0.25" stroke-linecap="round" stroke-linejoin="round" d="M45.43,9.81
	c0,0-1.753-0.083-1.803-1.067c-0.049-0.982,1.394-1.162,2.278-0.294c0.886,0.868,0.525,1.049,0.525,1.049l-1.017,0.36"/>
<path fill="#7F4121" stroke="#040000" stroke-width="0.25" stroke-linecap="round" stroke-linejoin="round" d="M53.044,7.833
	c0,0-0.841-2.022-2.316-1.137c-1.475,0.886-1.016,1.41-1.016,1.41l0.305,0.524l0.174,0.385L51,9.175L53.044,7.833z"/>
<path fill="#F2E99B" stroke="#040000" stroke-width="0.25" stroke-linecap="round" stroke-linejoin="round" d="M50.552,9.026
	c0,0,1.295-1.658,2.344-1.377c0,0,0.082,0.056,0.147,0.174c0.051,0.088,0.093,0.211,0.081,0.367
	c-0.011,0.147-0.067,0.33-0.212,0.539c0,0-1.131,1.232-2.409,0.819L50.552,9.026z"/>
<path fill="#7F4121" stroke="#040000" stroke-width="0.25" d="M47.797,6.744c0,0-1.834-0.175-2.184,2.402
	c0,0-0.306,1.444-0.831,2.098c0,0-0.919,1.401,0.961,1.838c0,0,2.753,0.699,4.764,0c0,0,1.748-0.612,1.006-2.448
	c0,0-0.836-1.465-0.967-2.416C50.415,7.268,49.278,6.597,47.797,6.744z"/>
<line fill="none" stroke="#040000" stroke-width="0.25" stroke-linecap="round" stroke-linejoin="round" x1="46.3" y1="7.52" x2="46.497" y2="7.881"/>
<line fill="none" stroke="#040000" stroke-width="0.25" stroke-linecap="round" stroke-linejoin="round" x1="46.607" y1="8.098" x2="46.759" y2="8.427"/>
<line fill="none" stroke="#040000" stroke-width="0.25" stroke-linecap="round" stroke-linejoin="round" x1="46.891" y1="8.711" x2="47.043" y2="9.071"/>
<line fill="none" stroke="#040000" stroke-width="0.25" stroke-linecap="round" stroke-linejoin="round" x1="47.153" y1="9.344" x2="47.306" y2="9.673"/>
<line fill="none" stroke="#040000" stroke-width="0.25" stroke-linecap="round" stroke-linejoin="round" x1="47.405" y1="9.933" x2="47.579" y2="10.372"/>
<line fill="none" stroke="#040000" stroke-width="0.25" stroke-linecap="round" stroke-linejoin="round" x1="48.574" y1="10.338" x2="48.808" y2="9.956"/>
<line fill="none" stroke="#040000" stroke-width="0.25" stroke-linecap="round" stroke-linejoin="round" x1="48.955" y1="9.705" x2="49.159" y2="9.27"/>
<line fill="none" stroke="#040000" stroke-width="0.25" stroke-linecap="round" stroke-linejoin="round" x1="49.269" y1="9" x2="49.414" y2="8.644"/>
<line fill="none" stroke="#040000" stroke-width="0.25" stroke-linecap="round" stroke-linejoin="round" x1="49.5" y1="8.382" x2="49.62" y2="8.033"/>
<line fill="none" stroke="#040000" stroke-width="0.25" stroke-linecap="round" stroke-linejoin="round" x1="49.688" y1="7.781" x2="49.841" y2="7.289"/>
<circle fill="#040000" stroke="#040000" stroke-width="0.25" stroke-linecap="round" stroke-linejoin="round" cx="45.99" cy="10.857" r="0.606"/>
<circle fill="#040000" stroke="#040000" stroke-width="0.25" stroke-linecap="round" stroke-linejoin="round" cx="50.383" cy="10.891" r="0.607"/>
<ellipse fill="#F4E893" stroke="#040000" stroke-width="0.25" stroke-linecap="round" stroke-linejoin="round" cx="48.24" cy="11.813" rx="1.557" ry="1.507"/>
<ellipse fill="#F7AB61" stroke="#040000" stroke-width="0.25" stroke-linecap="round" stroke-linejoin="round" cx="48.181" cy="11.132" rx="0.647" ry="0.417"/>
<path fill="none" stroke="#040000" stroke-width="0.25" stroke-linecap="round" stroke-linejoin="round" d="M47.012,11.689
	c0,0,0.07,0.689,0.479,0.664c0.411-0.025,0.655-0.792,0.655-0.792"/>
<path fill="none" stroke="#040000" stroke-width="0.25" stroke-linecap="round" stroke-linejoin="round" d="M49.395,11.688
	c0,0-0.066,0.69-0.479,0.664c-0.409-0.023-0.654-0.789-0.654-0.789"/>
<text transform="matrix(1 0 0 1 56.5713 18.79)" fill="#FFFFFF" font-family="'HGMaruGothicMPRO'" font-size="18">雑貨</text>
</svg>
